<svg width="24" height="24" viewBox="0 0 24 24" fill="none" xmlns="http://www.w3.org/2000/svg">
<path fill-rule="evenodd" clip-rule="evenodd" d="M10.8339 3.40023C11.2665 3.13841 11.7625 3 12.2681 3C12.7738 3 13.2698 3.13841 13.7024 3.40023L14.7209 4.02323C16.1499 4.89673 17.7774 5.09123 19.4124 5.28723C19.9409 5.35073 20.4699 5.41373 20.9934 5.50023C20.9934 5.50023 21.0049 6.41723 20.9929 6.83323L20.8884 10.4087C20.7984 13.4752 19.4349 16.3827 17.0959 18.4957C15.9924 19.4922 14.8509 20.3927 13.5394 21.1407C13.1528 21.3592 12.7195 21.4817 12.2758 21.498C11.832 21.5142 11.3909 21.4238 10.9894 21.2342C9.47487 20.5142 8.13387 19.6012 6.90937 18.4957C4.57037 16.3827 3.20687 13.4752 3.11737 10.4087L3.01337 6.84473C3.00087 6.42273 3.01337 5.50023 3.01337 5.50023C3.43837 5.45023 3.87137 5.40873 4.30787 5.36723C6.23437 5.18423 8.22487 4.99523 9.85787 3.99723L10.8339 3.40023ZM10.9984 11.0002V7.50023H12.9984V11.0002H16.4984V13.0002H12.9984V16.5002H10.9984V13.0002H7.49837V11.0002H10.9984Z" fill="#004F8C"/>
</svg>
