<svg width="24" height="24" viewBox="0 0 24 24" fill="none" xmlns="http://www.w3.org/2000/svg">
<path d="M11.3011 2.54986C11.1086 2.55023 10.9162 2.55464 10.7239 2.56308C10.3108 2.63653 10.12 2.81742 10.0164 3.02447C9.90225 3.25275 9.9067 3.55992 10.034 3.83306C10.1613 4.10634 10.3949 4.32975 10.721 4.41319C11.0472 4.49662 11.4961 4.4535 12.0862 4.07629L12.558 4.81458C11.8165 5.28848 11.099 5.4135 10.5042 5.26129C9.90947 5.10909 9.46814 4.69303 9.24009 4.20365C9.02522 3.74259 8.98575 3.20165 9.19181 2.72128C7.18008 3.04659 5.35852 3.81806 3.95934 4.90387C3.4995 5.40487 3.4545 5.98715 3.65606 6.38484C3.88247 6.83137 4.41591 7.15734 5.48278 6.81984L5.74791 7.65483C4.40822 8.07858 3.30398 7.62726 2.87541 6.78178C2.77087 6.57567 2.70703 6.35259 2.68195 6.12258C2.4563 6.39033 2.25258 6.66904 2.07258 6.95901L2.07848 6.96183C1.6747 7.88133 1.66552 8.51822 1.82648 8.93208C1.98755 9.34598 2.325 9.60895 2.84461 9.75389C3.88373 10.0436 5.56641 9.69403 6.75131 8.80908C7.2585 8.43033 7.7393 7.51172 7.78116 6.79931C7.80202 6.44306 7.72655 6.16162 7.57748 5.9819C7.42842 5.80219 7.18973 5.6677 6.69563 5.67281L6.68686 4.7969C7.36594 4.78987 7.91733 5.01975 8.25131 5.4224C8.58525 5.82506 8.68538 6.34359 8.65561 6.85059C8.59608 7.86464 8.06522 8.92115 7.2757 9.51075C5.87527 10.5567 4.02558 10.9923 2.61023 10.5977C1.95455 10.4149 1.37414 10.0171 1.07508 9.40097C0.627609 11.5312 1.27772 13.51 2.51498 14.8794C2.6767 15.0585 2.84883 15.2277 3.0292 15.3847C2.90011 15.015 2.84095 14.6301 2.85483 14.2554C2.87967 13.5839 3.13992 12.9267 3.66202 12.4727C4.09017 12.1003 4.68164 11.8854 5.38903 11.8868C5.43619 11.8868 5.48438 11.8876 5.53256 11.8896C5.64272 11.8943 5.75583 11.9039 5.871 11.919L5.75663 12.7876C5.02594 12.6916 4.5517 12.859 4.23619 13.1333C3.92072 13.4077 3.74667 13.8184 3.72933 14.2876C3.69464 15.2263 4.29511 16.3223 5.5898 16.6402L5.5883 16.649C6.86292 16.8923 8.2853 16.6665 9.7133 15.795C9.71414 15.7944 9.71531 15.7942 9.7162 15.7935C10.0134 15.585 10.1735 15.3807 10.2524 15.2047C10.3454 14.9969 10.3434 14.816 10.2772 14.6216C10.1448 14.233 9.67064 13.8336 9.23573 13.7222C8.53252 13.5422 8.0858 13.7895 7.87636 14.0841C7.66692 14.3785 7.65417 14.6677 7.97742 14.919L7.43977 15.6104C6.77475 15.0932 6.73233 14.1813 7.16297 13.5757C7.48603 13.1216 8.05289 12.8105 8.73628 12.7906C8.76508 12.7896 8.7939 12.7891 8.82272 12.7892C9.02456 12.7906 9.23475 12.8183 9.45258 12.874C10.1794 13.0601 10.8513 13.5901 11.1063 14.3389C11.1744 14.5396 11.2042 14.7513 11.1943 14.963C11.9775 14.5627 12.8036 14.2073 13.645 13.9404C15.0585 13.2945 15.6714 12.1621 15.6475 11.2086C15.6233 10.248 15.0293 9.4395 13.6611 9.30422L13.7475 8.43262C15.4663 8.60259 16.488 9.83175 16.522 11.1865C16.5418 11.9759 16.2523 12.7973 15.6694 13.4965C16.4228 13.4122 17.1715 13.4265 17.8974 13.5728C17.7496 13.2694 17.678 12.941 17.688 12.6148C17.7197 11.5818 18.5983 10.6182 19.979 10.6035C20.0733 10.6026 20.1677 10.6061 20.2617 10.6138L20.1914 11.4868C19.0229 11.3932 18.5835 12.0065 18.564 12.6426C18.5446 13.2716 18.9645 13.9758 20.168 14.0692C21.4946 14.081 22.4456 13.3615 22.9116 12.2924C23.5355 10.861 23.2396 8.71504 21.2783 6.75234C21.2412 6.71517 21.2043 6.67767 21.167 6.64101C21.1464 6.81582 21.1016 6.9869 21.0338 7.14933C20.6939 7.96448 19.8978 8.5147 19.0709 8.6684C17.9302 8.88037 16.9948 8.41776 16.563 7.71187C16.1313 7.00608 16.2447 6.00797 17.0215 5.4825L17.5123 6.20906C17.0945 6.49162 17.0773 6.87422 17.3101 7.25484C17.5429 7.63556 18.0681 7.96528 18.9112 7.80862C19.4411 7.71009 20.0313 7.27753 20.2251 6.81253C20.3221 6.58003 20.3408 6.35025 20.2442 6.08737C20.1657 5.87386 20.001 5.62969 19.6948 5.37253L19.686 5.36526C18.4056 4.40025 17.0452 3.70622 15.6665 3.24853C15.6674 3.25003 15.6686 3.25134 15.6695 3.25289C15.9828 3.8257 16.006 4.47548 15.813 5.05026C15.4271 6.19987 14.216 7.10564 12.7178 7.05558C12.3921 7.0448 12.0822 7.20183 11.8185 7.50825C11.5547 7.81467 11.3621 8.26355 11.3175 8.74167C11.2282 9.69792 11.642 10.752 13.2555 11.2729L12.9856 12.1065C11.0599 11.4847 10.3217 9.97148 10.4441 8.66114C10.5053 8.00606 10.7584 7.39729 11.1546 6.93708C11.5507 6.47686 12.1143 6.15881 12.7469 6.17976C13.8738 6.21736 14.7308 5.51958 14.9822 4.77056C15.108 4.39612 15.0917 4.02351 14.9002 3.67345C14.7142 3.33351 14.3457 2.99737 13.6859 2.75208C12.8983 2.61531 12.1004 2.54765 11.3011 2.54986ZM16.0456 14.3595C14.0809 14.5193 11.9504 15.4563 10.1731 16.542C7.54908 18.1451 4.78767 17.7952 2.82839 16.3414C3.5992 19.0997 6.33052 19.6596 9.17995 18.962C9.46509 18.8549 9.74527 18.6555 9.98419 18.3981C10.315 18.0415 10.5547 17.5792 10.6301 17.1969L11.49 17.3668C11.3754 17.9473 11.0645 18.523 10.6272 18.9943C10.2077 19.4464 9.66113 19.8076 9.02906 19.9025C8.71191 20.6089 8.45091 21.2937 8.34497 21.7731C8.17856 22.5259 9.01087 22.8149 9.38353 22.0557C10.2752 20.2396 11.5337 18.6231 13.1057 17.2291C14.3274 16.4251 15.3747 15.4337 16.0457 14.3595H16.0456Z" fill="#004F8C"/>
</svg>
