<svg width="24" height="24" viewBox="0 0 24 24" fill="none" xmlns="http://www.w3.org/2000/svg">
<path fill-rule="evenodd" clip-rule="evenodd" d="M15.0705 5.557C14.781 5.331 14.708 5.1255 14.6855 4.987V3H9.8V4.1395C10.216 4.184 10.5525 4.3465 10.8065 4.585C11.1655 4.9225 11.3145 5.37 11.32 5.698C11.3254 5.96063 11.2521 6.21887 11.1094 6.43944C10.9667 6.66 10.7613 6.83278 10.5195 6.9355C10.4828 7.01083 10.4428 7.0845 10.3995 7.1565C10.4451 7.41611 10.412 7.68343 10.3043 7.92403C10.1967 8.16464 10.0195 8.3675 9.7955 8.5065C9.6015 8.621 9.4005 8.6785 9.3235 8.693C9.06234 8.73006 8.79607 8.68833 8.55877 8.57316C8.32148 8.45798 8.12395 8.2746 7.9915 8.0465C7.912 8.01961 7.8339 7.98874 7.7575 7.954C7.50597 8.03025 7.23741 8.02969 6.98621 7.95237C6.73501 7.87505 6.51261 7.7245 6.3475 7.52C6.165 7.295 6.0075 6.9275 6.0135 6.508C5.4985 6.677 4.9325 6.943 4.4295 7.351C3.6245 8.004 3 9.007 3 10.47V16.008H5.7665V10.076C5.75732 10.0185 5.75732 9.95997 5.7665 9.9025V9.8785L5.779 9.8435C5.80939 9.72972 5.87472 9.62836 5.96578 9.55369C6.05685 9.47901 6.16905 9.43481 6.28657 9.4273C6.4041 9.41979 6.52101 9.44935 6.62084 9.51182C6.72067 9.57429 6.79838 9.66652 6.843 9.7755C6.87219 9.82913 6.88684 9.88946 6.8855 9.9505V15.3605C6.95217 15.3405 7.01883 15.3237 7.0855 15.31C7.33 15.26 7.7185 15.2215 8.034 15.4125C8.4435 15.6595 8.647 16.1175 8.56 16.561C8.57767 16.5923 8.5945 16.624 8.6105 16.656C9.0205 16.8425 9.3215 17.251 9.2805 17.7525C9.24 18.2495 8.8805 18.6115 8.4495 18.744C8.42517 18.779 8.39967 18.8137 8.373 18.848C8.3895 19.3005 8.111 19.7195 7.684 19.91C7.476 20.0025 7.2655 19.9925 7.1065 19.96C7.03128 19.944 6.95739 19.9223 6.8855 19.895V20.972H15.576L17.1 21V16.159C17.033 16.194 16.9643 16.2273 16.894 16.259C16.684 16.3515 16.4485 16.429 16.2115 16.462C15.9795 16.4945 15.705 16.4895 15.45 16.372C14.8195 16.083 14.415 15.455 14.527 14.8C14.4347 14.6912 14.3504 14.5759 14.2745 14.455C13.6105 14.286 13.026 13.7195 13 12.985C13.026 12.25 13.61 11.7045 14.2745 11.535C14.3508 11.415 14.435 11.3 14.527 11.19C14.4145 10.5355 14.8195 9.9075 15.45 9.618C15.705 9.5005 15.98 9.496 16.2115 9.528C16.4485 9.5615 16.6835 9.6385 16.894 9.7315C16.9673 9.76417 17.039 9.799 17.109 9.836C17.1183 9.80078 17.1352 9.76801 17.1585 9.74C17.2069 9.64232 17.2826 9.5608 17.3765 9.50536C17.4703 9.44992 17.5783 9.42294 17.6872 9.42771C17.7961 9.43247 17.9012 9.46878 17.9899 9.53221C18.0785 9.59564 18.1468 9.68347 18.1865 9.785C18.2075 9.81317 18.2234 9.84482 18.2335 9.8785V16.0075H21V10.47C21 9.0075 20.3755 8.005 19.5705 7.3515C18.784 6.714 17.844 6.4225 17.1855 6.3085C16.021 6.1065 15.399 5.813 15.0705 5.557ZM13.0005 6.9945C13.0004 7.06016 12.9874 7.12517 12.9622 7.1858C12.9371 7.24644 12.9002 7.30152 12.8537 7.34791C12.8072 7.39429 12.7521 7.43106 12.6914 7.45613C12.6307 7.4812 12.5657 7.49407 12.5 7.494C12.4343 7.49393 12.3693 7.48094 12.3087 7.45575C12.2481 7.43056 12.193 7.39368 12.1466 7.3472C12.1002 7.30072 12.0634 7.24557 12.0384 7.18488C12.0133 7.12419 12.0004 7.05916 12.0005 6.9935C12.0006 6.86089 12.0534 6.73377 12.1473 6.64009C12.2412 6.54642 12.3684 6.49387 12.501 6.494C12.6336 6.49413 12.7607 6.54694 12.8544 6.6408C12.9481 6.73466 13.0006 6.86189 13.0005 6.9945ZM12.0005 8.492C12.0005 8.55766 11.9875 8.62267 11.9623 8.68332C11.9372 8.74397 11.9003 8.79907 11.8539 8.84548C11.8074 8.89189 11.7523 8.92869 11.6916 8.95379C11.6309 8.97888 11.5659 8.99178 11.5002 8.99175C11.4346 8.99172 11.3696 8.97875 11.3089 8.95359C11.2483 8.92844 11.1932 8.89158 11.1468 8.84513C11.1004 8.79867 11.0636 8.74354 11.0385 8.68286C11.0134 8.62219 11.0005 8.55716 11.0005 8.4915C11.0006 8.35889 11.0533 8.23174 11.1471 8.13802C11.2409 8.0443 11.3681 7.99168 11.5007 7.99175C11.6334 7.99182 11.7605 8.04456 11.8542 8.13837C11.948 8.23219 12.0006 8.35939 12.0005 8.492ZM9.625 16.3545C9.69196 16.3567 9.75867 16.3454 9.82117 16.3213C9.88368 16.2972 9.9407 16.2608 9.98886 16.2142C10.037 16.1676 10.0753 16.1119 10.1015 16.0502C10.1277 15.9886 10.1412 15.9223 10.1413 15.8553C10.1414 15.7883 10.128 15.722 10.1019 15.6602C10.0758 15.5985 10.0376 15.5427 9.98958 15.496C9.94152 15.4494 9.88456 15.4128 9.82211 15.3886C9.75965 15.3644 9.69296 15.3529 9.626 15.355C9.49619 15.359 9.37302 15.4133 9.28255 15.5065C9.19209 15.5997 9.14143 15.7244 9.1413 15.8543C9.14117 15.9841 9.19158 16.109 9.28186 16.2023C9.37213 16.2957 9.4952 16.3503 9.625 16.3545ZM10.375 17.7395C10.4425 17.7426 10.5099 17.732 10.5731 17.7083C10.6364 17.6846 10.6942 17.6484 10.743 17.6017C10.7919 17.5551 10.8308 17.4991 10.8574 17.437C10.884 17.3749 10.8978 17.3081 10.8978 17.2405C10.8979 17.173 10.8843 17.1061 10.8578 17.044C10.8313 16.9819 10.7925 16.9257 10.7438 16.879C10.695 16.8323 10.6373 16.7959 10.5741 16.7721C10.5109 16.7483 10.4435 16.7375 10.376 16.7405C10.2474 16.7461 10.1259 16.8011 10.0368 16.8941C9.94776 16.9871 9.89798 17.1108 9.89785 17.2395C9.89772 17.3683 9.94725 17.4921 10.0361 17.5852C10.125 17.6784 10.2464 17.7336 10.375 17.7395ZM13.929 16.0695C13.9953 16.0795 14.0589 16.1028 14.116 16.1379C14.1731 16.173 14.2225 16.2193 14.2614 16.2739C14.3002 16.3285 14.3277 16.3904 14.3421 16.4559C14.3565 16.5213 14.3576 16.589 14.3453 16.6549C14.3331 16.7208 14.3076 16.7836 14.2706 16.8395C14.2335 16.8953 14.1856 16.9432 14.1297 16.9801C14.0738 17.0171 14.011 17.0424 13.9451 17.0546C13.8791 17.0668 13.8114 17.0655 13.746 17.051C13.6815 17.039 13.62 17.0144 13.5651 16.9786C13.5101 16.9428 13.4627 16.8966 13.4256 16.8425C13.3885 16.7884 13.3624 16.7275 13.3489 16.6634C13.3353 16.5992 13.3345 16.533 13.3465 16.4685C13.3585 16.404 13.3831 16.3425 13.4189 16.2876C13.4547 16.2326 13.5009 16.1852 13.555 16.1481C13.6091 16.111 13.67 16.0849 13.7341 16.0714C13.7983 16.0578 13.8645 16.0575 13.929 16.0695ZM13.5745 15.241C13.5958 15.1119 13.5656 14.9796 13.4904 14.8724C13.4153 14.7653 13.3011 14.6919 13.1724 14.668C13.0438 14.6442 12.9109 14.6717 12.8022 14.7447C12.6936 14.8177 12.618 14.9303 12.5915 15.0585C12.5702 15.1876 12.6004 15.3199 12.6756 15.4271C12.7507 15.5342 12.8649 15.6076 12.9936 15.6315C13.1222 15.6553 13.2551 15.6278 13.3638 15.5548C13.4724 15.4818 13.548 15.3692 13.5745 15.241Z" fill="#004F8C"/>
<path d="M17.1012 11.0379L17.0877 11.0474C17.0727 11.0254 17.0137 10.9604 16.8927 10.8734C16.7666 10.7837 16.6317 10.707 16.4902 10.6444C16.3582 10.5832 16.2184 10.5403 16.0747 10.5169C15.9487 10.4999 15.8877 10.5169 15.8692 10.5249C15.5127 10.6884 15.4727 10.9579 15.5427 11.1134L15.6852 11.4284L15.4402 11.6724C15.2732 11.8394 15.1372 12.0224 15.0362 12.2149L14.9127 12.4499L14.6487 12.4799C14.2137 12.5279 14.0077 12.8069 14.0012 12.9949C14.0082 13.1834 14.2142 13.4624 14.6487 13.5109L14.9127 13.5399L15.0362 13.7749C15.1372 13.9679 15.2732 14.1509 15.4407 14.3179L15.6857 14.5619L15.5427 14.8769C15.4727 15.0319 15.5127 15.3019 15.8692 15.4654C15.8877 15.4739 15.9492 15.4904 16.0742 15.4729C16.1952 15.4559 16.3392 15.4124 16.4902 15.3459C16.6392 15.2799 16.7802 15.1979 16.8932 15.1164C17.0137 15.0294 17.0727 14.9649 17.0877 14.9429L17.1012 14.9524V11.0379ZM6.88672 18.7419L6.90672 18.7314L6.90522 18.7289L6.90472 18.7279C6.90472 18.7279 6.92122 18.7504 6.96672 18.7904C7.01622 18.8339 7.07922 18.8789 7.14672 18.9154C7.21472 18.9534 7.27172 18.9739 7.30822 18.9814C7.33268 18.9667 7.35245 18.9454 7.36522 18.9199C7.36988 18.911 7.37272 18.9013 7.37358 18.8914C7.37443 18.8814 7.37329 18.8714 7.37022 18.8619L7.26522 18.5654L7.48822 18.3429C7.57126 18.2596 7.64212 18.165 7.69872 18.0619L7.82872 17.8199L8.10322 17.7999C8.15483 17.7969 8.20404 17.7771 8.24322 17.7434C8.27422 17.7154 8.28322 17.6894 8.28472 17.6709C8.28622 17.6539 8.28222 17.6339 8.26272 17.6109C8.23233 17.5781 8.19185 17.5564 8.14772 17.5494L7.86472 17.4959L7.76872 17.2244C7.73127 17.1191 7.67799 17.0201 7.61072 16.9309L7.41822 16.6759L7.56972 16.3944C7.57501 16.3856 7.57845 16.3758 7.57982 16.3657C7.5812 16.3555 7.58048 16.3452 7.57772 16.3354C7.5687 16.3094 7.55105 16.2874 7.52772 16.2729L7.48672 16.2679C7.41966 16.2666 7.3527 16.2733 7.28722 16.2879C7.14653 16.3155 7.01137 16.3661 6.88722 16.4379L6.88672 18.7419ZM7.07622 6.25986C7.04122 6.33286 7.02522 6.39886 7.01872 6.45486C6.99522 6.65436 7.07422 6.82736 7.12572 6.89086C7.23172 7.02086 7.40422 7.04336 7.52322 6.97336L7.77322 6.82636L8.02472 6.96986C8.16322 7.04886 8.31272 7.10836 8.46822 7.14536L8.74322 7.21136L8.82822 7.47986C8.87722 7.63186 9.02422 7.75236 9.18022 7.70486C9.21355 7.69534 9.24454 7.679 9.27122 7.65686C9.40322 7.56036 9.45672 7.40686 9.39622 7.25836L9.28872 6.99836L9.45672 6.77136C9.55172 6.64336 9.62772 6.50136 9.68322 6.35236L9.78422 6.08086L10.0702 6.03286C10.143 6.0183 10.2082 5.97831 10.2542 5.92004C10.3002 5.86177 10.324 5.78904 10.3212 5.71486C10.3197 5.63336 10.2692 5.44986 10.1227 5.31236C10.0417 5.23636 9.90972 5.15386 9.68922 5.13086C9.61151 5.24051 9.51662 5.33692 9.40822 5.41636C9.05322 5.68936 8.37022 6.01186 7.07572 6.26036" fill="#004F8C"/>
</svg>
