<svg width="24" height="24" viewBox="0 0 24 24" fill="none" xmlns="http://www.w3.org/2000/svg">
<path d="M20.1616 13.92L18.4016 10.4C18.2504 10.1542 18.0386 9.95151 17.7863 9.81139C17.5341 9.67127 17.2501 9.59847 16.9616 9.6H7.04156C6.75304 9.59847 6.46899 9.67127 6.21678 9.81139C5.96457 9.95151 5.75269 10.1542 5.60156 10.4L3.84156 13.92L1.85756 15.7632C1.77694 15.838 1.71259 15.9286 1.66854 16.0293C1.6245 16.1301 1.6017 16.2388 1.60156 16.3488V23.2C1.60156 23.4122 1.68585 23.6157 1.83588 23.7657C1.98591 23.9157 2.18939 24 2.40156 24H5.60156C5.92156 24 6.40156 23.68 6.40156 23.36V22.4H17.6016V23.2C17.6016 23.52 17.9216 24 18.2416 24H21.6016C21.8137 24 22.0172 23.9157 22.1672 23.7657C22.3173 23.6157 22.4016 23.4122 22.4016 23.2V16.3488C22.4014 16.2388 22.3786 16.1301 22.3346 16.0293C22.2905 15.9286 22.2262 15.838 22.1456 15.7632L20.1616 13.92ZM7.20156 11.2H16.8016L18.4016 14.4H5.60156L7.20156 11.2ZM8.00156 18.56C8.00156 18.88 7.52156 19.2 7.20156 19.2H3.84156C3.52156 19.2 3.20156 18.72 3.20156 18.4V16.64C3.36156 16.16 3.68156 15.84 4.16156 16L7.36156 16.64C7.68156 16.64 8.00156 17.12 8.00156 17.44V18.56ZM20.8016 18.4C20.8016 18.72 20.4816 19.2 20.1616 19.2H16.8016C16.4816 19.2 16.0016 18.88 16.0016 18.56V17.44C16.0016 17.12 16.3216 16.64 16.6416 16.64L19.8416 16C20.3216 15.84 20.6416 16.16 20.8016 16.64V18.4ZM12.8016 6.4H11.2016L9.60156 0H14.4016L12.8016 6.4ZM1.76156 2.88L5.92156 0.48L7.68156 6.88L6.40156 7.52L1.76156 2.88ZM18.0816 0.48L22.2416 2.88L17.6016 7.68L16.1616 6.88L18.0816 0.48Z" fill="#004F8C"/>
</svg>
