<svg width="24" height="24" viewBox="0 0 24 24" fill="none" xmlns="http://www.w3.org/2000/svg">
<g clip-path="url(#clip0_10759_20681)">
<path d="M21.4315 9.86025C21.1399 9.40431 20.8985 8.91815 20.7115 8.41025C20.7115 3.14025 15.8415 0.000252811 11.1415 0.000252811C9.82056 -0.00917267 8.51104 0.245046 7.2896 0.748021C6.06815 1.251 4.95934 1.99262 4.02808 2.92946C3.09683 3.86631 2.36185 4.97954 1.86619 6.20397C1.37053 7.4284 1.12415 8.73942 1.14148 10.0603C1.14148 13.5603 2.41148 16.1903 4.92148 17.8803C4.9899 17.9243 5.046 17.9851 5.08448 18.0568C5.12296 18.1285 5.14258 18.2089 5.14148 18.2903V23.5003C5.14148 23.6329 5.19416 23.76 5.28793 23.8538C5.38169 23.9476 5.50887 24.0003 5.64148 24.0003H15.6415C15.7741 24.0003 15.9013 23.9476 15.995 23.8538C16.0888 23.76 16.1415 23.6329 16.1415 23.5003V20.5003C16.1415 20.3676 16.1942 20.2405 16.2879 20.1467C16.3817 20.0529 16.5089 20.0003 16.6415 20.0003H18.1415C18.8045 20.0003 19.4404 19.7369 19.9092 19.268C20.3781 18.7992 20.6415 18.1633 20.6415 17.5003V15.5003C20.6415 15.3676 20.6942 15.2405 20.7879 15.1467C20.8817 15.0529 21.0089 15.0003 21.1415 15.0003H21.6915C21.8865 14.9942 22.0777 14.9443 22.2508 14.8543C22.4239 14.7642 22.5745 14.6364 22.6915 14.4803C22.8313 14.2561 22.8977 13.9939 22.8815 13.7303C22.7598 12.3322 22.2584 10.994 21.4315 9.86025ZM11.2515 15.0003C11.037 14.9998 10.8275 14.9349 10.6504 14.8139C10.4732 14.6929 10.3365 14.5215 10.258 14.3219C10.1795 14.1223 10.1628 13.9036 10.2101 13.6944C10.2574 13.4852 10.3664 13.295 10.5232 13.1485C10.6799 13.002 10.877 12.9061 11.089 12.873C11.3009 12.84 11.5179 12.8714 11.7118 12.9632C11.9057 13.0551 12.0674 13.203 12.1762 13.388C12.2849 13.5729 12.3355 13.7862 12.3215 14.0003C12.3037 14.2717 12.1831 14.5262 11.9844 14.712C11.7856 14.8978 11.5235 15.0008 11.2515 15.0003ZM11.8215 9.00025C11.8195 8.78821 11.8806 8.58036 11.9969 8.40309C12.1133 8.22582 12.2797 8.08712 12.475 8.0046C12.6704 7.92208 12.8858 7.89946 13.094 7.93961C13.3022 7.97976 13.4938 8.08087 13.6445 8.2301C13.7951 8.37934 13.898 8.56997 13.9401 8.7778C13.9822 8.98563 13.9616 9.20128 13.881 9.39738C13.8003 9.59348 13.6631 9.76119 13.487 9.87921C13.3108 9.99723 13.1035 10.0602 12.8915 10.0603C12.6094 10.0603 12.3388 9.94891 12.1384 9.7504C11.938 9.55189 11.8241 9.2823 11.8215 9.00025ZM14.5415 17.7303C14.3299 17.7303 14.123 17.6675 13.947 17.5499C13.7711 17.4324 13.6339 17.2652 13.5529 17.0697C13.4719 16.8742 13.4508 16.6591 13.492 16.4515C13.5333 16.2439 13.6352 16.0533 13.7849 15.9036C13.9345 15.754 14.1252 15.6521 14.3327 15.6108C14.5403 15.5695 14.7554 15.5907 14.951 15.6717C15.1465 15.7527 15.3136 15.8898 15.4312 16.0658C15.5487 16.2418 15.6115 16.4486 15.6115 16.6603C15.6128 16.8021 15.5862 16.9428 15.5331 17.0743C15.48 17.2059 15.4016 17.3257 15.3022 17.4269C15.2029 17.5281 15.0846 17.6087 14.954 17.6642C14.8235 17.7197 14.6833 17.7489 14.5415 17.7503V17.7303ZM14.5415 13.3503C14.3299 13.3503 14.123 13.2875 13.947 13.1699C13.7711 13.0524 13.6339 12.8852 13.5529 12.6897C13.4719 12.4942 13.4508 12.2791 13.492 12.0715C13.5333 11.8639 13.6352 11.6733 13.7849 11.5236C13.9345 11.374 14.1252 11.2721 14.3327 11.2308C14.5403 11.1895 14.7554 11.2107 14.951 11.2917C15.1465 11.3727 15.3136 11.5098 15.4312 11.6858C15.5487 11.8618 15.6115 12.0686 15.6115 12.2803C15.6128 12.4221 15.5862 12.5628 15.5331 12.6943C15.48 12.8259 15.4016 12.9457 15.3022 13.0469C15.2029 13.1481 15.0846 13.2287 14.954 13.2842C14.8235 13.3397 14.6833 13.3689 14.5415 13.3703V13.3503ZM15.6615 6.80025C15.6595 6.58821 15.7206 6.38036 15.8369 6.20309C15.9533 6.02582 16.1197 5.88712 16.315 5.8046C16.5104 5.72208 16.7258 5.69946 16.934 5.73961C17.1422 5.77976 17.3338 5.88087 17.4845 6.0301C17.6351 6.17934 17.738 6.36997 17.7801 6.5778C17.8222 6.78563 17.8016 7.00128 17.721 7.19738C17.6403 7.39348 17.5031 7.56119 17.327 7.67921C17.1508 7.79723 16.9435 7.86024 16.7315 7.86025C16.4528 7.86036 16.1851 7.75176 15.9853 7.55754C15.7855 7.36332 15.6693 7.0988 15.6615 6.82025V6.80025ZM16.2015 10.6303C16.1975 10.4154 16.2577 10.2043 16.3744 10.0238C16.4911 9.84341 16.6589 9.70189 16.8565 9.61736C17.054 9.53284 17.2723 9.50917 17.4834 9.54937C17.6944 9.58957 17.8887 9.69182 18.0414 9.84305C18.194 9.99427 18.2981 10.1876 18.3403 10.3983C18.3825 10.609 18.3608 10.8275 18.2782 11.0258C18.1955 11.2241 18.0556 11.3933 17.8762 11.5117C17.6969 11.63 17.4863 11.6922 17.2715 11.6903C16.9928 11.6904 16.7251 11.5818 16.5253 11.3875C16.3255 11.1933 16.2093 10.9288 16.2015 10.6503V10.6303ZM17.8215 16.0803C17.6103 16.0802 17.4038 16.0177 17.2281 15.9006C17.0523 15.7835 16.9152 15.6169 16.8339 15.422C16.7526 15.2271 16.7309 15.0124 16.7714 14.8052C16.8118 14.5979 16.9128 14.4072 17.0614 14.2572C17.2101 14.1071 17.3998 14.0045 17.6067 13.962C17.8136 13.9196 18.0284 13.9394 18.2241 14.0189C18.4198 14.0983 18.5875 14.2339 18.7063 14.4085C18.8251 14.5832 18.8895 14.7891 18.8915 15.0003C18.8955 15.1433 18.8708 15.2856 18.8188 15.4189C18.7668 15.5522 18.6887 15.6738 18.5889 15.7763C18.4891 15.8789 18.3698 15.9604 18.238 16.016C18.1062 16.0717 17.9646 16.1003 17.8215 16.1003V16.0803Z" fill="#004F8C"/>
</g>
<defs>
<clipPath id="clip0_10759_20681">
<rect width="24" height="24" fill="white"/>
</clipPath>
</defs>
</svg>
