<svg width="18" height="20" viewBox="0 0 18 20" fill="none" xmlns="http://www.w3.org/2000/svg">
<path d="M11.1875 0.753906V4.34991C11.1875 4.83691 11.3815 5.30491 11.7275 5.64991C12.0744 5.99528 12.544 6.18909 13.0335 6.18891H17.1585" stroke="#004F8C" stroke-width="1.5" stroke-linecap="round" stroke-linejoin="round"/>
<path d="M4.647 5.64801H7.912M4.647 10.001H13.353M4.647 14.354H13.353M17.25 6.56901V15.137C17.2301 15.6974 17.0996 16.2484 16.8658 16.7581C16.6321 17.2679 16.2997 17.7263 15.888 18.107C15.4759 18.4895 14.9925 18.787 14.4654 18.9826C13.9383 19.1782 13.3778 19.2681 12.816 19.247H5.226C4.66074 19.2728 4.09594 19.1868 3.56398 18.994C3.03201 18.8011 2.54335 18.5051 2.126 18.123C1.71027 17.7413 1.37454 17.2807 1.13833 16.7681C0.90211 16.2555 0.770111 15.7011 0.75 15.137V4.86301C0.769854 4.30258 0.900422 3.75162 1.13418 3.24189C1.36794 2.73215 1.70026 2.27372 2.112 1.89301C2.52408 1.51053 3.00748 1.21299 3.53458 1.01738C4.06169 0.821777 4.62217 0.73194 5.184 0.753005H10.898C11.7703 0.749924 12.6123 1.07267 13.259 1.65801L16.219 4.38001C16.5349 4.65208 16.7899 4.98761 16.9675 5.36475C17.1452 5.7419 17.2414 6.15221 17.25 6.56901Z" stroke="#004F8C" stroke-width="1.5" stroke-linecap="round" stroke-linejoin="round"/>
</svg>
