<svg width="24" height="24" viewBox="0 0 24 24" fill="none" xmlns="http://www.w3.org/2000/svg">
<path d="M19.7519 5.33C19.4204 5.33 19.1024 5.4617 18.868 5.69612C18.6336 5.93054 18.5019 6.24848 18.5019 6.58V11.17H17.6719V4.08C17.6719 3.74848 17.5402 3.43054 17.3058 3.19612C17.0713 2.9617 16.7534 2.83 16.4219 2.83C16.0904 2.83 15.7724 2.9617 15.538 3.19612C15.3036 3.43054 15.1719 3.74848 15.1719 4.08V11.17H14.3319V3.25C14.3319 2.91848 14.2002 2.60054 13.9658 2.36612C13.7313 2.1317 13.4134 2 13.0819 2C12.7504 2 12.4324 2.1317 12.198 2.36612C11.9636 2.60054 11.8319 2.91848 11.8319 3.25V11.17H11.0019V5.33C11.0019 4.99848 10.8702 4.68054 10.6358 4.44612C10.4013 4.2117 10.0834 4.08 9.75187 4.08C9.42035 4.08 9.10241 4.2117 8.86799 4.44612C8.63357 4.68054 8.50187 4.99848 8.50187 5.33V15.26L4.91187 13.26C4.76044 13.1701 4.58796 13.1218 4.41187 13.12C4.1688 13.1203 3.93418 13.2092 3.75187 13.37L2.67188 14.37L9.21187 21C9.51984 21.3169 9.88831 21.5687 10.2954 21.7404C10.7025 21.9122 11.14 22.0005 11.5819 22H17.6719C18.555 22 19.402 21.6492 20.0265 21.0247C20.651 20.4002 21.0019 19.5532 21.0019 18.67V6.58C21.0019 6.24848 20.8702 5.93054 20.6358 5.69612C20.4013 5.4617 20.0834 5.33 19.7519 5.33ZM11.0019 15C10.8041 15 10.6108 14.9414 10.4463 14.8315C10.2819 14.7216 10.1537 14.5654 10.078 14.3827C10.0023 14.2 9.9825 13.9989 10.0211 13.8049C10.0597 13.6109 10.1549 13.4327 10.2948 13.2929C10.4346 13.153 10.6128 13.0578 10.8068 13.0192C11.0008 12.9806 11.2018 13.0004 11.3846 13.0761C11.5673 13.1518 11.7235 13.28 11.8333 13.4444C11.9432 13.6089 12.0019 13.8022 12.0019 14C12.0019 14.2652 11.8965 14.5196 11.709 14.7071C11.5214 14.8946 11.2671 15 11.0019 15ZM13.0019 18C12.8041 18 12.6108 17.9414 12.4463 17.8315C12.2819 17.7216 12.1537 17.5654 12.078 17.3827C12.0023 17.2 11.9825 16.9989 12.0211 16.8049C12.0597 16.6109 12.1549 16.4327 12.2948 16.2929C12.4346 16.153 12.6128 16.0578 12.8068 16.0192C13.0008 15.9806 13.2018 16.0004 13.3846 16.0761C13.5673 16.1518 13.7235 16.28 13.8333 16.4444C13.9432 16.6089 14.0019 16.8022 14.0019 17C14.0019 17.2652 13.8965 17.5196 13.709 17.7071C13.5214 17.8946 13.2671 18 13.0019 18ZM18.0019 16C17.8041 16 17.6108 15.9414 17.4463 15.8315C17.2819 15.7216 17.1537 15.5654 17.078 15.3827C17.0023 15.2 16.9825 14.9989 17.0211 14.8049C17.0597 14.6109 17.1549 14.4327 17.2948 14.2929C17.4346 14.153 17.6128 14.0578 17.8068 14.0192C18.0008 13.9806 18.2018 14.0004 18.3846 14.0761C18.5673 14.1518 18.7235 14.28 18.8333 14.4444C18.9432 14.6089 19.0019 14.8022 19.0019 15C19.0019 15.2652 18.8965 15.5196 18.709 15.7071C18.5214 15.8946 18.2671 16 18.0019 16ZM17.0019 19C16.8041 19 16.6108 18.9414 16.4463 18.8315C16.2819 18.7216 16.1537 18.5654 16.078 18.3827C16.0023 18.2 15.9825 17.9989 16.0211 17.8049C16.0597 17.6109 16.1549 17.4327 16.2948 17.2929C16.4346 17.153 16.6128 17.0578 16.8068 17.0192C17.0008 16.9806 17.2018 17.0004 17.3846 17.0761C17.5673 17.1518 17.7235 17.28 17.8333 17.4444C17.9432 17.6089 18.0019 17.8022 18.0019 18C18.0019 18.2652 17.8965 18.5196 17.709 18.7071C17.5214 18.8946 17.2671 19 17.0019 19ZM15.0019 15C14.8041 15 14.6108 14.9414 14.4463 14.8315C14.2819 14.7216 14.1537 14.5654 14.078 14.3827C14.0023 14.2 13.9825 13.9989 14.0211 13.8049C14.0597 13.6109 14.1549 13.4327 14.2948 13.2929C14.4346 13.153 14.6128 13.0578 14.8068 13.0192C15.0008 12.9806 15.2018 13.0004 15.3846 13.0761C15.5673 13.1518 15.7235 13.28 15.8333 13.4444C15.9432 13.6089 16.0019 13.8022 16.0019 14C16.0019 14.2652 15.8965 14.5196 15.709 14.7071C15.5214 14.8946 15.2671 15 15.0019 15Z" fill="#004F8C"/>
</svg>
