<svg width="24" height="24" viewBox="0 0 24 24" fill="none" xmlns="http://www.w3.org/2000/svg">
<path d="M7.47187 1.22982C5.0625 1.25795 3.74062 3.86888 3.75469 5.30654C3.825 7.52373 5.35781 9.02842 7.26094 10.6878C8.92031 12.1315 10.8281 13.6503 11.9906 15.844C11.9953 15.8394 11.9953 15.8347 12 15.83C12.0047 15.8347 12.0047 15.8394 12.0094 15.844C13.1719 13.6503 15.0797 12.1315 16.7391 10.6878C18.6422 9.02842 20.175 7.52373 20.2453 5.30654C20.2594 3.86888 18.9375 1.25795 16.5281 1.22982C14.7469 1.20638 12.6562 2.43451 12 4.40326C11.3438 2.43451 9.25312 1.20638 7.47187 1.22982ZM1.07812 17.5784V22.9222H22.9219V17.5784H1.07812ZM1.92188 18.4222H22.0781V22.0784H15.6562V19.2659H1.92188V18.4222Z" fill="#004F8C"/>
</svg>
