<svg width="20" height="20" viewBox="0 0 20 20" fill="none" xmlns="http://www.w3.org/2000/svg">
<path d="M6.51637 18.3333H13.4836C15.4076 18.3333 16.9673 16.8449 16.9673 15.0089V10.9442C16.9673 10.354 17.2129 9.78795 17.6503 9.37062C18.6635 8.40371 18.5318 6.80167 17.3729 5.99739L12.049 2.30246C10.8274 1.45468 9.17256 1.45468 7.95103 2.30246L2.62709 5.99739C1.46822 6.80167 1.3365 8.40371 2.34974 9.37062C2.78706 9.78795 3.03275 10.354 3.03275 10.9442V15.0089C3.03275 16.8449 4.59242 18.3333 6.51637 18.3333Z" fill="#E6EEF4"/>
<path fill-rule="evenodd" clip-rule="evenodd" d="M6.09126 13.0894C6.22607 12.7717 6.59295 12.6234 6.91072 12.7582C8.19617 13.3035 9.13516 13.5441 10.0321 13.5419C10.9285 13.5396 11.8448 13.2948 13.0858 12.7596C13.4028 12.6229 13.7705 12.7691 13.9072 13.0861C14.0439 13.403 13.8977 13.7708 13.5808 13.9074C12.2687 14.4732 11.1732 14.789 10.0352 14.7918C8.89785 14.7947 7.78002 14.4848 6.42253 13.9089C6.10477 13.7741 5.95645 13.4072 6.09126 13.0894Z" fill="#004F8C"/>
</svg>
