<svg width="24" height="24" viewBox="0 0 24 24" fill="none" xmlns="http://www.w3.org/2000/svg">
<g clip-path="url(#clip0_10759_20695)">
<path d="M1.19588 1.61407C1.18611 1.59644 1.17993 1.57704 1.1777 1.55701C1.17547 1.53697 1.17723 1.5167 1.18288 1.49735C1.18853 1.478 1.19795 1.45995 1.21061 1.44427C1.22327 1.42858 1.23891 1.41555 1.25663 1.40594L2.37038 0.799195C2.38803 0.789464 2.40744 0.783334 2.42747 0.781161C2.44751 0.778988 2.46778 0.780815 2.48711 0.786536C2.50643 0.792257 2.52443 0.801758 2.54005 0.814488C2.55568 0.827218 2.56862 0.842924 2.57813 0.860695L3.02475 1.67557C4.71338 1.16932 6.58425 1.88932 7.46288 3.49845L5.30475 4.67669C5.47617 4.99103 5.51569 5.36058 5.41463 5.70405C5.31357 6.04752 5.08021 6.33678 4.76588 6.50819C4.45155 6.67961 4.082 6.71913 3.73853 6.61807C3.39505 6.51701 3.10579 6.28365 2.93438 5.96932L0.775505 7.14607C-0.10387 5.53769 0.300005 3.57494 1.64175 2.42932L1.19588 1.61407ZM16.401 16.2923H23.6644V23.8006H16.401V16.2923ZM15.5685 20.0449H9.70238C9.21076 20.0448 8.73928 19.8496 8.39151 19.5021C8.04374 19.1546 7.84813 18.6833 7.84763 18.1917C7.84793 17.7 8.04349 17.2287 8.39132 16.8812C8.73914 16.5337 9.21073 16.3386 9.70238 16.3388H15.5685V20.0449ZM2.92088 21.5483C2.92088 21.1339 3.2565 20.7976 3.67125 20.7976H15.5681V23.7998H2.92088V21.5479V21.5483ZM7.43213 17.8077C7.43193 18.1017 7.37382 18.3928 7.26111 18.6644C7.14839 18.936 6.98329 19.1827 6.77522 19.3904C6.56716 19.5982 6.3202 19.7629 6.04847 19.8752C5.77673 19.9875 5.48553 20.0452 5.1915 20.0449C4.89744 20.0452 4.60621 19.9876 4.33443 19.8753C4.06265 19.763 3.81565 19.5983 3.60754 19.3906C3.39944 19.1828 3.2343 18.9361 3.12156 18.6645C3.00883 18.3929 2.9507 18.1018 2.9505 17.8077C2.9505 16.5728 3.95363 15.5716 5.1915 15.5716C6.42863 15.5716 7.43213 16.5728 7.43213 17.8077ZM19.6796 11.5426L18.4193 7.9542C18.1748 7.27769 17.7053 6.7497 16.38 6.7497H10.5615C9.23663 6.7497 8.76638 7.27769 8.523 7.9542L7.263 11.5426C7.16888 11.7743 7.12013 12.2952 7.63275 12.6439L10.5956 14.5962C10.8034 14.7332 11.057 14.7822 11.3009 14.7325C11.5447 14.6828 11.7589 14.5384 11.8965 14.3311C11.9644 14.2281 12.0113 14.1128 12.0346 13.9918C12.0579 13.8707 12.0571 13.7462 12.0322 13.6254C12.0074 13.5047 11.959 13.39 11.8899 13.2879C11.8207 13.1858 11.7321 13.0984 11.6291 13.0306L9.2775 11.4807L9.93938 9.65482H10.8555L10.3189 11.1361L12.1043 12.3128C12.3018 12.4423 12.4718 12.6097 12.6042 12.8053C12.7366 13.0009 12.8289 13.2209 12.8756 13.4524C12.9242 13.6839 12.9262 13.9227 12.8817 14.155C12.8371 14.3873 12.7469 14.6084 12.6161 14.8054C12.5114 14.9618 12.3829 15.1007 12.2351 15.2172H14.7071C14.5597 15.1003 14.431 14.9614 14.3258 14.8054C14.1951 14.6083 14.1048 14.3872 14.0601 14.155C14.0155 13.9228 14.0173 13.684 14.0655 13.4524C14.1125 13.2209 14.2049 13.001 14.3374 12.8054C14.4698 12.6098 14.6397 12.4424 14.8373 12.3128L16.6238 11.1361L16.0849 9.65482H17.0018L17.6651 11.4807L15.3124 13.0306C14.88 13.3156 14.7593 13.8994 15.0454 14.3311C15.3315 14.7627 15.9143 14.8819 16.3466 14.5962L19.3091 12.6439C19.8221 12.2948 19.7734 11.7743 19.6796 11.5426ZM14.0498 3.23782C13.979 3.39152 13.8656 3.52172 13.7231 3.61297C13.5806 3.70423 13.415 3.75272 13.2458 3.75269C13.0763 3.75262 12.9104 3.70411 12.7677 3.61289C12.6249 3.52167 12.5112 3.39153 12.4399 3.23782H10.8169C10.7906 3.38032 10.7753 3.52619 10.7753 3.67657C10.7759 4.33359 11.0375 4.96345 11.5023 5.42775C11.9672 5.89205 12.5974 6.15279 13.2544 6.15269C13.5798 6.15294 13.902 6.08909 14.2028 5.96478C14.5035 5.84047 14.7768 5.65814 15.007 5.42821C15.2373 5.19827 15.42 4.92524 15.5447 4.62469C15.6694 4.32414 15.7337 4.00197 15.7339 3.67657C15.7339 3.52582 15.7178 3.38032 15.6926 3.23782H14.0498ZM12.3851 2.65319C12.4336 2.46167 12.5446 2.29178 12.7005 2.17035C12.8563 2.04893 13.0482 1.9829 13.2458 1.98269C13.6605 1.98269 14.0104 2.26919 14.1049 2.65319H15.5111C15.3143 2.21986 14.9968 1.85237 14.5967 1.59462C14.1966 1.33688 13.7307 1.19977 13.2548 1.19969C12.7788 1.19977 12.3129 1.33688 11.9128 1.59462C11.5127 1.85237 11.1952 2.21986 10.9984 2.65319H12.3851Z" fill="#004F8C"/>
</g>
<defs>
<clipPath id="clip0_10759_20695">
<rect width="24" height="24" fill="white"/>
</clipPath>
</defs>
</svg>
