<svg width="24" height="24" viewBox="0 0 24 24" fill="none" xmlns="http://www.w3.org/2000/svg">
<g clip-path="url(#clip0_10759_20710)">
<path d="M6.82581 7.33691C7.13043 7.20065 7.40522 7.0057 7.63447 6.7632C7.86373 6.52071 8.04296 6.23542 8.16192 5.92363C8.28088 5.61185 8.33724 5.27968 8.32779 4.9461C8.31833 4.61252 8.24324 4.28408 8.10681 3.97953C7.83084 3.36424 7.32188 2.88369 6.69177 2.64349C6.06166 2.40329 5.36195 2.42308 4.74643 2.69853C4.44157 2.83457 4.16653 3.0294 3.93705 3.27186C3.70758 3.51433 3.52818 3.79967 3.40912 4.11156C3.29006 4.42345 3.23369 4.75575 3.24322 5.08946C3.25276 5.42316 3.32801 5.7517 3.46468 6.05628C3.74063 6.67177 4.24975 7.15244 4.88006 7.3926C5.51037 7.63275 6.21026 7.61272 6.82581 7.33691ZM10.4656 4.54016C10.5165 4.45269 10.5403 4.35211 10.5341 4.2511C10.5279 4.1501 10.4919 4.0532 10.4307 3.97262C10.3694 3.89205 10.2857 3.83142 10.1901 3.79837C10.0944 3.76533 9.99112 3.76136 9.89322 3.78696C9.79531 3.81255 9.70718 3.86658 9.63995 3.94221C9.57272 4.01785 9.52939 4.1117 9.51544 4.21193C9.50149 4.31216 9.51754 4.41427 9.56156 4.50539C9.60559 4.59651 9.67561 4.67255 9.76281 4.72391C9.88038 4.79255 10.0204 4.81171 10.1521 4.77719C10.2838 4.74266 10.3964 4.65728 10.4652 4.53978L10.4656 4.54016ZM15.1849 1.81503C15.2188 1.75697 15.2409 1.69279 15.25 1.62617C15.259 1.55955 15.2549 1.4918 15.2377 1.4268C15.2205 1.3618 15.1907 1.30083 15.1499 1.24737C15.1091 1.19392 15.0582 1.14903 15.0001 1.11528C14.9125 1.06426 14.8118 1.04035 14.7107 1.04658C14.6095 1.05281 14.5125 1.08889 14.4319 1.15027C14.3512 1.21165 14.2906 1.29556 14.2577 1.39139C14.2248 1.48723 14.221 1.59067 14.2469 1.68865C14.2727 1.78662 14.3271 1.87472 14.403 1.9418C14.479 2.00888 14.5731 2.05193 14.6735 2.0655C14.774 2.07907 14.8761 2.06255 14.9672 2.01803C15.0582 1.97352 15.134 1.90263 15.1849 1.81503ZM13.6118 2.72328C13.6457 2.6653 13.6678 2.60117 13.6768 2.53459C13.6858 2.46802 13.6816 2.40033 13.6643 2.33541C13.647 2.2705 13.617 2.20965 13.5761 2.15638C13.5351 2.10311 13.4841 2.05847 13.4258 2.02503C13.3679 1.99102 13.3039 1.96875 13.2375 1.95952C13.171 1.95029 13.1033 1.95427 13.0384 1.97123C12.9735 1.9882 12.9125 2.01782 12.859 2.05839C12.8056 2.09896 12.7606 2.14969 12.7268 2.20766C12.6587 2.32534 12.6399 2.46517 12.6745 2.59666C12.709 2.72816 12.7942 2.84066 12.9113 2.90966C13.029 2.97767 13.1688 2.99628 13.3002 2.96142C13.4315 2.92656 13.5437 2.84106 13.6122 2.72366L13.6118 2.72328ZM16.7584 0.90716C16.8266 0.789717 16.8455 0.650064 16.811 0.518729C16.7765 0.387394 16.6914 0.275061 16.5743 0.206285C16.4565 0.138543 16.3166 0.12008 16.1852 0.154913C16.0538 0.189746 15.9415 0.275056 15.8727 0.392285C15.8388 0.4503 15.8167 0.514444 15.8076 0.581032C15.7986 0.64762 15.8028 0.715337 15.82 0.780293C15.8372 0.845249 15.8671 0.906163 15.9079 0.959533C15.9488 1.0129 15.9997 1.05768 16.0579 1.09128C16.116 1.12524 16.1803 1.14741 16.2469 1.15653C16.3136 1.16565 16.3814 1.16154 16.4465 1.14444C16.5116 1.12734 16.5727 1.09759 16.6263 1.05687C16.6799 1.01616 16.7245 0.965285 16.7584 0.90716ZM11.9408 3.75191C11.9904 3.7067 12.0306 3.65213 12.0591 3.59134C12.0876 3.53055 12.1038 3.46474 12.1068 3.39767C12.1098 3.3306 12.0996 3.2636 12.0766 3.20051C12.0536 3.13743 12.0185 3.07949 11.9731 3.03004C11.8816 2.92996 11.7541 2.87025 11.6186 2.86399C11.4832 2.85773 11.3508 2.90544 11.2504 2.99666C11.2007 3.0418 11.1604 3.0963 11.1318 3.15705C11.1032 3.2178 11.0869 3.2836 11.0838 3.35067C11.0807 3.41774 11.0909 3.48476 11.1138 3.54788C11.1366 3.61101 11.1717 3.66901 11.2171 3.71853C11.2624 3.76826 11.3171 3.80856 11.378 3.83715C11.4389 3.86573 11.5048 3.88204 11.572 3.88514C11.6392 3.88824 11.7064 3.87807 11.7697 3.85521C11.8329 3.83235 11.8911 3.79725 11.9408 3.75191ZM10.4656 5.48816C10.5165 5.57571 10.5404 5.67639 10.5342 5.7775C10.5279 5.8786 10.4919 5.9756 10.4306 6.05624C10.3693 6.13688 10.2855 6.19755 10.1897 6.23059C10.094 6.26364 9.99057 6.26757 9.89258 6.2419C9.79459 6.21622 9.7064 6.16209 9.63915 6.08634C9.5719 6.01059 9.5286 5.91661 9.51472 5.81627C9.50083 5.71593 9.51699 5.61373 9.56114 5.52256C9.6053 5.43139 9.67547 5.35535 9.76281 5.30404C9.88055 5.2361 10.0203 5.21733 10.1518 5.2518C10.2833 5.28627 10.3963 5.3712 10.4656 5.48816ZM13.6118 7.30653C13.6457 7.36459 13.6678 7.42878 13.6767 7.4954C13.6857 7.56202 13.6815 7.62975 13.6642 7.69471C13.6469 7.75967 13.6169 7.82058 13.576 7.87392C13.5351 7.92726 13.4841 7.97199 13.4258 8.00554C13.3679 8.03949 13.3038 8.06167 13.2372 8.07079C13.1707 8.07991 13.103 8.0758 13.0381 8.05869C12.9731 8.04158 12.9122 8.01182 12.8588 7.9711C12.8054 7.93038 12.7605 7.87951 12.7268 7.82141C12.6664 7.70452 12.6532 7.56886 12.69 7.44252C12.7268 7.31618 12.8108 7.20884 12.9246 7.14272C13.0384 7.0766 13.1732 7.05677 13.3012 7.08733C13.4292 7.1179 13.5406 7.19652 13.6122 7.30691L13.6118 7.30653ZM20.6461 8.31041H14.1079C12.3064 8.31041 10.6992 9.77141 10.6992 11.5722V19.4674C10.6992 20.0843 11.1826 20.586 11.7976 20.586C12.0937 20.5854 12.3776 20.4673 12.5867 20.2575C12.7958 20.0478 12.9131 19.7636 12.9128 19.4674V12.3495H13.8353V23.742H16.8293V20.655H17.7814V23.742H20.7773V12.3499H21.7092V19.4678C21.7092 20.0847 22.2079 20.5864 22.8211 20.5864C23.4376 20.5864 23.9243 20.0843 23.9243 19.4678V11.5725C23.9247 9.77178 22.4468 8.31041 20.6461 8.31041ZM15.2858 9.49616C15.0413 9.63866 14.7271 9.55653 14.5842 9.31203C14.5209 9.19474 14.5058 9.05742 14.542 8.92916C14.5782 8.80089 14.6629 8.69175 14.7781 8.62484C14.8934 8.55792 15.0302 8.53849 15.1595 8.57065C15.2888 8.60282 15.4006 8.68405 15.4711 8.79716C15.6121 9.04091 15.5307 9.35516 15.2858 9.49616ZM16.8593 10.4052C16.7418 10.473 16.6022 10.4918 16.471 10.4573C16.3397 10.4228 16.2274 10.3379 16.1584 10.221C16.0962 10.1039 16.0818 9.96727 16.1182 9.83975C16.1546 9.71223 16.2389 9.60375 16.3535 9.53705C16.4681 9.47036 16.6041 9.45064 16.733 9.48203C16.8618 9.51342 16.9735 9.59347 17.0446 9.70541C17.1863 9.94916 17.1038 10.2619 16.8593 10.4055V10.4052ZM11.9408 6.27716C11.9904 6.32249 12.0306 6.37714 12.059 6.438C12.0875 6.49886 12.1037 6.56473 12.1067 6.63185C12.1097 6.69897 12.0995 6.76602 12.0766 6.82919C12.0537 6.89235 12.0186 6.95038 11.9732 6.99997C11.9279 7.04956 11.8733 7.08974 11.8124 7.11821C11.7515 7.14668 11.6857 7.16288 11.6186 7.16589C11.5514 7.1689 11.4844 7.15866 11.4212 7.13576C11.3581 7.11286 11.3 7.07774 11.2504 7.03241C11.1503 6.94086 11.0906 6.81327 11.0845 6.67772C11.0784 6.54217 11.1264 6.40975 11.218 6.3096C11.3095 6.20944 11.4371 6.14976 11.5727 6.14368C11.7082 6.1376 11.8407 6.18561 11.9408 6.27716ZM12.5026 4.60166C12.5904 4.65206 12.6614 4.72735 12.7065 4.81804C12.7516 4.90873 12.7688 5.01075 12.756 5.11123C12.7432 5.2117 12.7009 5.30613 12.6344 5.38258C12.568 5.45903 12.4804 5.51409 12.3827 5.5408C12.285 5.56752 12.1816 5.56469 12.0855 5.53267C11.9894 5.50066 11.9049 5.44089 11.8428 5.36092C11.7806 5.28094 11.7435 5.18435 11.7362 5.08332C11.7289 4.9823 11.7517 4.88137 11.8017 4.79328C11.8695 4.67524 11.9812 4.5888 12.1125 4.55283C12.2439 4.51686 12.384 4.53428 12.5026 4.60128V4.60166ZM17.2864 2.47616C16.6111 2.47616 15.9635 2.74442 15.486 3.22194C15.0084 3.69945 14.7402 4.3471 14.7402 5.02241C14.7402 5.69772 15.0084 6.34537 15.486 6.82288C15.9635 7.3004 16.6111 7.56866 17.2864 7.56866C17.6208 7.56871 17.9519 7.5029 18.2609 7.37498C18.5698 7.24707 18.8505 7.05955 19.087 6.82315C19.3235 6.58674 19.5111 6.30607 19.6391 5.99716C19.7671 5.68826 19.833 5.35716 19.8331 5.02279C19.8329 4.34744 19.5645 3.69981 19.087 3.22227C18.6094 2.74473 17.9618 2.47636 17.2864 2.47616ZM16.0201 3.34353C16.0878 3.22563 16.1996 3.13941 16.3308 3.10377C16.4621 3.06813 16.6021 3.08598 16.7202 3.15341C16.9651 3.29441 17.0498 3.60528 16.9099 3.85241C16.8422 3.97001 16.7306 4.05601 16.5996 4.09163C16.4687 4.12726 16.3289 4.10961 16.2109 4.04253C16.0933 3.97483 16.0072 3.86331 15.9715 3.73233C15.9358 3.60136 15.953 3.46158 16.0201 3.34353ZM15.3394 5.49154C15.2217 5.42389 15.1355 5.3124 15.0998 5.18142C15.064 5.05044 15.0815 4.91062 15.1486 4.79253C15.2163 4.67443 15.3282 4.58806 15.4596 4.55241C15.5911 4.51676 15.7313 4.53475 15.8494 4.60241C16.0951 4.74266 16.1791 5.05353 16.0373 5.30066C16.0041 5.35904 15.9597 5.41031 15.9067 5.45152C15.8536 5.49274 15.793 5.52309 15.7282 5.54086C15.6634 5.55862 15.5958 5.56344 15.5291 5.55504C15.4625 5.54664 15.3982 5.52519 15.3398 5.49191L15.3394 5.49154ZM16.9339 6.71178C16.8664 6.82957 16.7549 6.91582 16.6239 6.95165C16.4929 6.98749 16.3531 6.97001 16.2349 6.90303C16.1228 6.83257 16.0423 6.72147 16.0102 6.59298C15.9781 6.46449 15.9969 6.32857 16.0628 6.21365C16.1286 6.09874 16.2363 6.01374 16.3634 5.97644C16.4905 5.93914 16.6271 5.95244 16.7446 6.01354C16.9894 6.15379 17.0742 6.46541 16.9339 6.71178ZM17.8549 5.30066C17.7873 5.41839 17.6758 5.50455 17.5448 5.54031C17.4138 5.57608 17.274 5.55854 17.1559 5.49154C17.038 5.42395 16.9517 5.31228 16.9161 5.18109C16.8805 5.0499 16.8984 4.90993 16.966 4.79197C17.0336 4.67402 17.1452 4.58774 17.2764 4.55212C17.4076 4.5165 17.5476 4.53445 17.6656 4.60203C17.9093 4.74228 17.9967 5.05503 17.8549 5.30066ZM14.0307 4.54729C14.3067 4.60841 14.4807 4.87954 14.4207 5.15703C14.3908 5.28943 14.3099 5.40469 14.1955 5.47772C14.0811 5.55076 13.9425 5.57567 13.8098 5.54704C13.6774 5.51743 13.5621 5.43667 13.489 5.32236C13.416 5.20806 13.3911 5.0695 13.4198 4.93691C13.4495 4.80443 13.5304 4.68908 13.6449 4.61607C13.7593 4.54307 13.898 4.51833 14.0307 4.54729ZM14.7511 6.60903C15.0263 6.67091 15.2011 6.94203 15.1411 7.21878C15.1112 7.35118 15.0303 7.46644 14.9159 7.53947C14.8015 7.61251 14.6629 7.63742 14.5302 7.60878C14.3976 7.57949 14.2821 7.49874 14.2091 7.38428C14.136 7.26983 14.1115 7.13105 14.1407 6.99847C14.17 6.8659 14.2508 6.75039 14.3652 6.67735C14.4797 6.60432 14.6185 6.57974 14.7511 6.60903Z" fill="#004F8C"/>
<path d="M14.6112 2.58619C14.6769 2.60064 14.7391 2.62789 14.7942 2.66637C14.8493 2.70486 14.8964 2.75382 14.9326 2.81048C14.9688 2.86713 14.9935 2.93037 15.0053 2.99657C15.017 3.06277 15.0157 3.13064 15.0012 3.19631C14.9868 3.26198 14.9595 3.32416 14.921 3.3793C14.8826 3.43444 14.8336 3.48146 14.7769 3.51767C14.7203 3.55389 14.657 3.57859 14.5908 3.59037C14.5246 3.60214 14.4568 3.60077 14.3911 3.58631C14.3254 3.57186 14.2632 3.54461 14.2081 3.50613C14.153 3.46764 14.1059 3.41868 14.0697 3.36202C14.0335 3.30537 14.0088 3.24213 13.997 3.17593C13.9853 3.10973 13.9866 3.04186 14.0011 2.97619C14.0155 2.91052 14.0428 2.84834 14.0813 2.7932C14.1198 2.73806 14.1687 2.69104 14.2254 2.65483C14.282 2.61861 14.3453 2.59391 14.4115 2.58213C14.4777 2.57036 14.5455 2.57173 14.6112 2.58619ZM6.50447 14.5547C6.59738 14.7264 6.73524 14.8696 6.90329 14.9689C7.07134 15.0683 7.26325 15.12 7.45847 15.1187C7.92909 15.1187 8.33409 14.8382 8.49647 14.4246L10.4341 8.73806C10.481 8.6002 10.5003 8.45445 10.4909 8.30913C10.4814 8.16381 10.4435 8.02177 10.3792 7.89112C10.3149 7.76046 10.2254 7.64376 10.116 7.54767C10.0066 7.45157 9.87933 7.37797 9.74147 7.33106C9.60361 7.28416 9.45785 7.26486 9.31253 7.27429C9.16721 7.28371 9.02517 7.32166 8.89452 7.38598C8.76387 7.45029 8.64717 7.53971 8.55107 7.64913C8.45498 7.75855 8.38138 7.88582 8.33447 8.02369L7.22447 11.2884L6.02184 9.13406C5.77955 8.75232 5.43402 8.44707 5.0253 8.25372C4.61659 8.06037 4.16144 7.98682 3.71263 8.04162C3.26382 8.09641 2.83974 8.2773 2.48955 8.56331C2.13936 8.84933 1.87742 9.22874 1.73409 9.65756L0.280594 14.0068C0.174469 14.2708 0.105469 14.7403 0.105469 14.9863V23.7426H4.45472V16.5763L5.65059 13.0202L6.50447 14.5547Z" fill="#004F8C"/>
</g>
<defs>
<clipPath id="clip0_10759_20710">
<rect width="24" height="24" fill="white"/>
</clipPath>
</defs>
</svg>
