<svg width="20" height="20" viewBox="0 0 20 20" fill="none" xmlns="http://www.w3.org/2000/svg">
<path d="M16.6667 11.6667L17.6262 10.7072C18.0167 10.3167 18.0167 9.6835 17.6262 9.29297L16.6667 8.33341" stroke="#D1D5DB" stroke-width="1.5" stroke-linecap="round" stroke-linejoin="round"/>
<path d="M17.5 9.99992H10.8333M5 16.6666C3.15905 16.6666 1.66667 15.1742 1.66667 13.3333V6.66659C1.66667 4.82564 3.15905 3.33325 5 3.33325M5 16.6666C6.84095 16.6666 8.33333 15.1742 8.33333 13.3333V6.66659C8.33333 4.82564 6.84095 3.33325 5 3.33325M5 16.6666H11.6667C13.5076 16.6666 15 15.1742 15 13.3333M5 3.33325H11.6667C13.5076 3.33325 15 4.82564 15 6.66659" stroke="#D1D5DB" stroke-width="1.5" stroke-linecap="round"/>
</svg>
