<svg width="24" height="24" viewBox="0 0 24 24" fill="none" xmlns="http://www.w3.org/2000/svg">
<path d="M8.29966 3.85088C7.82566 2.70988 6.25166 2.59988 5.62266 3.66388L2.27866 9.32688C2.14867 9.54704 2.07711 9.79677 2.07077 10.0524C2.06444 10.308 2.12354 10.5609 2.24246 10.7873C2.36139 11.0136 2.53619 11.2058 2.75027 11.3455C2.96436 11.4853 3.21061 11.568 3.46566 11.5859L9.33366 11.9959C9.58875 12.0138 9.84417 11.9661 10.0757 11.8575C10.3072 11.7489 10.507 11.5829 10.6563 11.3753C10.8056 11.1677 10.8994 10.9254 10.9287 10.6713C10.9579 10.4173 10.9218 10.16 10.8237 9.92388L8.29966 3.85088Z" fill="#004F8C"/>
<path d="M16.4999 2C15.909 2 15.3238 2.1164 14.7778 2.34254C14.2319 2.56869 13.7358 2.90016 13.3179 3.31802C12.9001 3.73588 12.5686 4.23196 12.3425 4.77792C12.1163 5.32389 11.9999 5.90905 11.9999 6.5C11.9999 7.09095 12.1163 7.67611 12.3425 8.22208C12.5686 8.76804 12.9001 9.26412 13.3179 9.68198C13.7358 10.0998 14.2319 10.4313 14.7778 10.6575C15.3238 10.8836 15.909 11 16.4999 11C17.6934 11 18.838 10.5259 19.6819 9.68198C20.5258 8.83807 20.9999 7.69347 20.9999 6.5C20.9999 5.30653 20.5258 4.16193 19.6819 3.31802C18.838 2.47411 17.6934 2 16.4999 2ZM14.0839 5.856C14.1179 5.72913 14.1766 5.61021 14.2565 5.50602C14.3365 5.40182 14.4362 5.3144 14.55 5.24875C14.6637 5.1831 14.7893 5.1405 14.9195 5.12338C15.0497 5.10627 15.1821 5.11497 15.3089 5.149L18.2069 5.926C18.3368 5.95712 18.4592 6.01395 18.5668 6.09315C18.6744 6.17234 18.765 6.27229 18.8333 6.38709C18.9016 6.5019 18.9463 6.62923 18.9646 6.76156C18.9829 6.8939 18.9745 7.02856 18.9398 7.15759C18.9052 7.28662 18.8451 7.40741 18.763 7.51282C18.681 7.61823 18.5786 7.70613 18.462 7.77133C18.3454 7.83653 18.2169 7.8777 18.0841 7.89241C17.9513 7.90712 17.817 7.89508 17.6889 7.857L14.7909 7.081C14.664 7.047 14.5451 6.98834 14.4409 6.90838C14.3367 6.82841 14.2493 6.7287 14.1837 6.61495C14.118 6.50119 14.0754 6.37562 14.0583 6.2454C14.0412 6.11518 14.0499 5.98286 14.0839 5.856ZM8.82791 21.684C8.05231 21.4846 7.36091 21.0421 6.85495 20.4213C6.34899 19.8006 6.05505 19.0342 6.01615 18.2343C5.97725 17.4344 6.19544 16.6431 6.63878 15.9761C7.08212 15.3092 7.72732 14.8017 8.47991 14.528L14.5879 12.305C15.0507 12.1366 15.5421 12.061 16.0341 12.0825C16.5261 12.104 17.0091 12.2221 17.4554 12.4303C17.9017 12.6384 18.3027 12.9324 18.6354 13.2955C18.9681 13.6586 19.226 14.0837 19.3944 14.5465C19.5628 15.0093 19.6385 15.5007 19.617 15.9927C19.5955 16.4847 19.4773 16.9677 19.2691 17.414C19.061 17.8603 18.767 18.2613 18.4039 18.594C18.0408 18.9267 17.6157 19.1846 17.1529 19.353L11.0449 21.576C10.8009 21.664 10.5556 21.7263 10.3089 21.763M12.4529 15.21L15.2719 14.184C15.4879 14.1054 15.7173 14.0701 15.947 14.0802C16.1766 14.0902 16.4021 14.1454 16.6104 14.2426C16.8187 14.3398 17.0059 14.477 17.1612 14.6465C17.3164 14.816 17.4368 15.0145 17.5154 15.2305C17.594 15.4465 17.6293 15.6759 17.6192 15.9056C17.6092 16.1352 17.554 16.3607 17.4568 16.569C17.3596 16.7773 17.2224 16.9645 17.0529 17.1197C16.8834 17.275 16.6849 17.3954 16.4689 17.474L13.6489 18.499L12.4529 15.21Z" fill="#004F8C"/>
</svg>
