<svg width="20" height="20" viewBox="0 0 20 20" fill="none" xmlns="http://www.w3.org/2000/svg">
<g clip-path="url(#clip0_8161_41379)">
<path d="M10 9.16675V14.1667M12.5 11.6667H7.5M13.4836 18.3334H6.51637C4.59242 18.3334 3.03275 16.8451 3.03275 15.0091V10.9443C3.03275 10.3541 2.78706 9.78807 2.34974 9.37074C1.3365 8.40383 1.46822 6.80179 2.62709 5.99751L7.95103 2.30258C9.17256 1.4548 10.8274 1.4548 12.049 2.30258L17.3729 5.99751C18.5318 6.80179 18.6635 8.40383 17.6503 9.37074C17.2129 9.78807 16.9673 10.3541 16.9673 10.9443V15.0091C16.9673 16.8451 15.4076 18.3334 13.4836 18.3334Z" stroke="#E6EEF4" stroke-width="1.5" stroke-linecap="round"/>
</g>
<defs>
<clipPath id="clip0_8161_41379">
<rect width="20" height="20" fill="white"/>
</clipPath>
</defs>
</svg>
