<svg width="24" height="24" viewBox="0 0 24 24" fill="none" xmlns="http://www.w3.org/2000/svg">
<path fill-rule="evenodd" clip-rule="evenodd" d="M15.5912 3.4389L14.7683 2.91261C14.6063 2.80911 14.4696 2.67059 14.3681 2.50725C14.2667 2.3439 14.2032 2.15989 14.1823 1.96876C14.1615 1.77763 14.1837 1.58425 14.2474 1.40285C14.3112 1.22146 14.4148 1.05667 14.5506 0.92061C14.9209 0.552039 15.3803 0.363468 15.7746 0.269182C16.1826 0.171468 16.6112 0.149182 17.0226 0.174896C17.7718 0.222896 18.5981 0.442325 19.3078 0.850325C19.4662 0.916716 19.6097 1.01418 19.7298 1.13696C19.85 1.25974 19.9443 1.40535 20.0072 1.56518C20.4015 2.26804 20.6175 3.0789 20.6638 3.81432C20.6895 4.22575 20.6672 4.65433 20.5695 5.06233C20.4685 5.52228 20.2432 5.94567 19.9181 6.28632C19.7821 6.42258 19.6173 6.52657 19.4358 6.59063C19.2543 6.6547 19.0608 6.67719 18.8694 6.65646C18.678 6.63573 18.4938 6.5723 18.3302 6.47085C18.1667 6.36941 18.028 6.23253 17.9243 6.07032L17.4066 5.25947L15.7249 6.94118C16.0581 7.84762 16.222 8.80754 16.2083 9.77318C16.2083 11.688 15.6649 13.3646 14.4683 14.5629C13.5529 15.4766 12.3598 16.008 10.9935 16.2086V17.3212C11.9865 17.4485 12.9682 17.652 13.9301 17.9298C14.259 18.02 14.5386 18.2372 14.7074 18.5336C14.8762 18.8301 14.9203 19.1814 14.8301 19.5103C14.7398 19.8393 14.5226 20.1189 14.2262 20.2877C13.9298 20.4565 13.5784 20.5006 13.2495 20.4103C12.3821 20.1703 11.6552 20.0075 10.9935 19.9132V22.6818C10.9935 23.0227 10.858 23.3498 10.6169 23.5909C10.3758 23.832 10.0488 23.9675 9.70777 23.9675C9.36678 23.9675 9.03975 23.832 8.79863 23.5909C8.55752 23.3498 8.42206 23.0227 8.42206 22.6818V19.9012C7.66492 20.0129 6.91714 20.1808 6.18492 20.4035C6.02283 20.4507 5.85301 20.4656 5.68517 20.4473C5.51733 20.4289 5.35475 20.3777 5.2067 20.2965C5.05866 20.2153 4.92806 20.1058 4.82235 19.9741C4.71664 19.8425 4.63791 19.6913 4.59063 19.5292C4.54335 19.3671 4.52847 19.1973 4.54682 19.0294C4.56517 18.8616 4.6164 18.699 4.69758 18.551C4.77877 18.4029 4.88832 18.2723 5.01998 18.1666C5.15164 18.0609 5.30283 17.9822 5.46492 17.9349C6.43034 17.6402 7.4199 17.4314 8.42206 17.3109V16.2172C7.03349 16.0235 5.81806 15.4886 4.89063 14.5629C3.69577 13.3646 3.15234 11.688 3.15234 9.77147C3.15234 7.8549 3.69406 6.18175 4.89234 4.98347C6.08892 3.7869 7.76549 3.24518 9.68034 3.24518C11.4803 3.24518 13.0712 3.72518 14.2506 4.77775L15.5912 3.4389ZM6.7112 6.80575C6.12491 7.39032 5.72377 8.3349 5.72377 9.7749C5.72377 11.2149 6.12491 12.1612 6.70949 12.7458C7.29577 13.3303 8.23863 13.7315 9.68034 13.7315C11.1203 13.7315 12.0632 13.3303 12.6495 12.7458C13.2358 12.1612 13.6369 11.2166 13.6369 9.7749C13.6369 8.3349 13.2358 7.39204 12.6495 6.80575C12.0649 6.22118 11.1203 5.82004 9.68034 5.82004C8.24034 5.82004 7.29749 6.22118 6.7112 6.80575Z" fill="#004F8C"/>
</svg>
