<svg width="20" height="20" viewBox="0 0 20 20" fill="none" xmlns="http://www.w3.org/2000/svg">
<path d="M10.7071 3.33325H9.29292C8.51191 3.33325 7.87877 3.93021 7.87877 4.66659C7.87877 5.50926 6.97715 6.04501 6.23703 5.64212L6.16186 5.6012C5.48548 5.23301 4.6206 5.45151 4.2301 6.08923L3.52302 7.24393C3.13252 7.88165 3.36426 8.69711 4.04064 9.0653C4.78111 9.46838 4.78111 10.5315 4.04064 10.9345C3.36426 11.3027 3.13252 12.1182 3.52302 12.7559L4.2301 13.9106C4.6206 14.5483 5.48548 14.7668 6.16186 14.3986L6.23703 14.3577C6.97716 13.9548 7.87877 14.4906 7.87877 15.3333C7.87877 16.0696 8.51191 16.6666 9.29292 16.6666H10.7071C11.4881 16.6666 12.1212 16.0696 12.1212 15.3333C12.1212 14.4906 13.0228 13.9548 13.763 14.3577L13.8381 14.3986C14.5145 14.7668 15.3794 14.5483 15.7699 13.9106L16.477 12.7559C16.8675 12.1182 16.6357 11.3027 15.9594 10.9345C15.2189 10.5315 15.2189 9.46839 15.9594 9.06531C16.6357 8.69712 16.8675 7.88166 16.477 7.24394L15.7699 6.08924C15.3794 5.45152 14.5145 5.23302 13.8381 5.60121L13.763 5.64212C13.0228 6.04502 12.1212 5.50927 12.1212 4.66659C12.1212 3.93021 11.4881 3.33325 10.7071 3.33325Z" stroke="#D1D5DB" stroke-width="1.5" stroke-linejoin="round"/>
<circle cx="10" cy="10" r="2.5" stroke="#D1D5DB" stroke-width="1.5"/>
</svg>
