<svg width="20" height="20" viewBox="0 0 20 20" fill="none" xmlns="http://www.w3.org/2000/svg">
<g clip-path="url(#clip0_8157_40857)">
<path d="M15.4657 16.2908C14.6378 14.0766 12.503 12.5001 10 12.5001C7.49698 12.5001 5.36217 14.0766 4.5343 16.2908M15.4657 16.2908C17.2226 14.7629 18.3333 12.5112 18.3333 10.0001C18.3333 5.39771 14.6024 1.66675 10 1.66675C5.39763 1.66675 1.66667 5.39771 1.66667 10.0001C1.66667 12.5112 2.77737 14.7629 4.5343 16.2908M15.4657 16.2908C14.0026 17.5631 12.0912 18.3334 10 18.3334C7.90877 18.3334 5.99745 17.5631 4.5343 16.2908" stroke="#E6EEF4" stroke-width="1.5" stroke-linejoin="round"/>
<circle cx="2.5" cy="2.5" r="2.5" transform="matrix(1 0 0 -1 7.5 10)" stroke="#E6EEF4" stroke-width="1.5" stroke-linejoin="round"/>
</g>
<defs>
<clipPath id="clip0_8157_40857">
<rect width="20" height="20" fill="white"/>
</clipPath>
</defs>
</svg>
