<svg width="24" height="24" viewBox="0 0 24 24" fill="none" xmlns="http://www.w3.org/2000/svg">
<path d="M21.6498 13.714H21.6541H21.6455H21.6498ZM21.0455 13.2683C21.1312 13.5409 21.3781 13.7123 21.6498 13.714C21.7098 13.714 21.7758 13.6969 21.8427 13.6797C22.177 13.5769 22.3655 13.2083 22.2541 12.874C22.2284 12.7969 19.6569 5.14258 12.001 5.14258C4.34495 5.14258 1.77267 12.7969 1.74695 12.874C1.63552 13.2083 1.82409 13.5683 2.15838 13.6797C2.50124 13.7911 2.86124 13.6026 2.97267 13.2683L2.97524 13.264C3.08924 12.9297 5.32124 6.42829 12.0095 6.42829C18.7312 6.42829 20.9512 12.9854 21.0455 13.2683ZM7.71524 13.714C7.71524 12.5774 8.16677 11.4873 8.97049 10.6835C9.77422 9.87982 10.8643 9.42829 12.001 9.42829C13.1376 9.42829 14.2277 9.87982 15.0314 10.6835C15.8351 11.4873 16.2867 12.5774 16.2867 13.714C16.2867 14.8506 15.8351 15.9407 15.0314 16.7445C14.2277 17.5482 13.1376 17.9997 12.001 17.9997C10.8643 17.9997 9.77422 17.5482 8.97049 16.7445C8.16677 15.9407 7.71524 14.8506 7.71524 13.714Z" fill="#004F8C"/>
</svg>
