<svg width="32" height="32" viewBox="0 0 32 32" fill="none" xmlns="http://www.w3.org/2000/svg">
<rect width="32" height="32" rx="5" fill="#AB202B"/>
<path d="M23.6447 2.05119C23.9686 2.24197 24.038 2.69226 24.1254 3.02786C24.1847 3.25719 24.2399 3.48728 24.2924 3.71826C24.4583 4.55713 24.4583 4.55713 24.8543 5.29921C24.8712 5.32182 24.8712 5.32182 24.8712 5.35453C24.8807 5.35909 24.8903 5.36366 24.9001 5.36836C24.9343 5.38607 24.9648 5.40584 24.9965 5.42754C25.0686 5.47276 25.138 5.49332 25.2207 5.5109C25.236 5.51425 25.2513 5.5176 25.2671 5.52106C25.503 5.56964 25.7439 5.59096 25.9832 5.61618C26.0757 5.62595 26.1682 5.63582 26.2607 5.64582C26.2979 5.64978 26.335 5.65357 26.3721 5.65735C26.6604 5.68753 26.9742 5.74279 27.1821 5.96368C27.2821 6.09223 27.3024 6.21064 27.286 6.37168C27.2687 6.47019 27.2359 6.55624 27.1933 6.64642C27.1852 6.66373 27.1771 6.68104 27.1688 6.69887C27.0963 6.84307 27.0018 6.96465 26.899 7.08796C26.8889 7.10016 26.8789 7.11237 26.8685 7.12494C26.7927 7.21528 26.7078 7.29554 26.621 7.37516C26.6072 7.38785 26.6072 7.38785 26.5932 7.4008C26.5458 7.44444 26.4983 7.4879 26.4505 7.53109C26.2845 7.68175 26.1397 7.845 25.9995 8.02008C25.9928 8.02851 25.986 8.03693 25.979 8.04561C25.7889 8.28216 25.6156 8.53046 25.4427 8.77977C25.2791 9.01548 25.11 9.24691 24.9366 9.47551C24.9297 9.48467 24.9227 9.49383 24.9156 9.50326C24.8085 9.64466 24.6974 9.78248 24.585 9.9197C24.5631 9.94659 24.5412 9.97359 24.5194 10.0006C24.4495 10.0869 24.3773 10.1701 24.3025 10.2522C24.2665 10.2928 24.2325 10.3345 24.1987 10.377C24.0212 10.5946 23.8193 10.7907 23.6212 10.9892C23.6051 11.0054 23.6051 11.0054 23.5886 11.0219C23.4794 11.1315 23.3704 11.2397 23.2522 11.3398C23.2232 11.3663 23.1942 11.3928 23.1653 11.4195C23.0924 11.486 23.0174 11.5491 22.9406 11.6111C22.8961 11.6475 22.8525 11.6847 22.8091 11.7223C22.7022 11.815 22.5929 11.9031 22.48 11.9883C22.4255 12.0295 22.3713 12.071 22.317 12.1125C22.3054 12.1213 22.2937 12.1302 22.2818 12.1394C22.1582 12.2339 22.0355 12.3293 21.9129 12.425C21.8807 12.4501 21.8484 12.475 21.816 12.4999C21.7049 12.5856 21.5994 12.675 21.497 12.7709C21.461 12.8045 21.4244 12.8369 21.3869 12.8688C21.2417 12.9953 21.1141 13.1342 20.9955 13.2858C20.9826 13.3019 20.9696 13.318 20.9563 13.3346C20.7554 13.5874 20.5924 13.8675 20.4356 14.1492C20.2529 14.4773 20.2529 14.4773 20.1451 14.6104C20.134 14.6244 20.1229 14.6384 20.1114 14.6529C20.0741 14.6991 20.0362 14.7448 19.9979 14.7903C19.9907 14.7989 19.9834 14.8076 19.976 14.8165C19.7969 15.03 19.6077 15.2328 19.4088 15.4279C19.3559 15.48 19.3075 15.5326 19.2621 15.5916C19.1884 15.6707 19.1884 15.6707 19.1312 15.6897C19.1312 15.7005 19.1312 15.7113 19.1312 15.7224C19.1102 15.7425 19.1102 15.7425 19.0812 15.7653C19.0261 15.8107 18.981 15.8597 18.9361 15.915C18.9066 15.9468 18.8767 15.9738 18.8438 16.0019C18.768 16.0679 18.6971 16.1381 18.6263 16.2094C18.6131 16.2226 18.5998 16.2359 18.5862 16.2496C18.5443 16.2915 18.5025 16.3335 18.4608 16.3755C18.4322 16.4041 18.4036 16.4328 18.3751 16.4614C18.3055 16.5312 18.2359 16.601 18.1664 16.6709C18.1966 16.7368 18.2404 16.7807 18.2921 16.8303C18.3582 16.8951 18.422 16.9605 18.482 17.031C18.5144 17.0687 18.5479 17.1053 18.5814 17.1421C18.645 17.2126 18.7055 17.2853 18.7653 17.3592C18.7998 17.4014 18.8348 17.4429 18.8702 17.4843C19.8567 18.6377 19.8567 18.6377 19.8344 19.0584C19.7296 19.1117 19.633 19.1386 19.5166 19.1525C19.5006 19.1545 19.4847 19.1565 19.4684 19.1586C19.2747 19.1806 19.0805 19.1772 18.8859 19.1729C18.8411 19.077 18.8043 18.9816 18.774 18.8802C18.7654 18.8524 18.7569 18.8246 18.7483 18.7968C18.7439 18.7825 18.7396 18.7681 18.735 18.7533C18.647 18.4667 18.5498 18.1881 18.428 17.9137C18.4204 17.8965 18.4128 17.8792 18.4049 17.8615C18.2666 17.5508 18.1132 17.2492 17.9538 16.9489C17.9322 16.9489 17.9106 16.9489 17.8884 16.9489C17.8776 16.9597 17.8668 16.9705 17.8557 16.9816C17.8621 17.0418 17.8939 17.0932 17.9215 17.1462C17.929 17.1606 17.929 17.1606 17.9366 17.1753C17.9473 17.1958 17.958 17.2163 17.9688 17.2368C17.9857 17.2691 18.0025 17.3015 18.0193 17.3338C18.0669 17.4254 18.1148 17.5169 18.1637 17.6079C18.5352 18.3006 18.8152 19.0609 18.9186 19.8434C18.922 19.8655 18.9253 19.8876 18.9287 19.9097C18.969 20.1955 19.0273 20.61 18.8859 20.8736C18.8382 20.9097 18.7976 20.9181 18.7388 20.9227C18.7222 20.9264 18.7057 20.9301 18.6887 20.9339C18.6782 20.9356 18.6678 20.9373 18.657 20.9391C18.5923 20.8312 18.6042 20.6914 18.6009 20.5698C18.5997 20.5318 18.5985 20.4939 18.5973 20.456C18.5954 20.397 18.5937 20.3381 18.592 20.2792C18.5774 19.7686 18.5227 19.2676 18.3626 18.7804C18.3565 18.7617 18.3565 18.7617 18.3503 18.7425C18.3376 18.704 18.3246 18.6655 18.3115 18.6271C18.3056 18.6095 18.3056 18.6095 18.2996 18.5914C18.2792 18.5335 18.2607 18.4946 18.2155 18.4534C18.2174 18.4678 18.2192 18.4821 18.2212 18.4969C18.2591 18.7876 18.2939 19.0757 18.2972 19.3692C18.2974 19.3819 18.2975 19.3946 18.2977 19.4077C18.3019 19.7456 18.3039 20.0835 18.2839 20.4209C18.2822 20.4521 18.2822 20.4521 18.2805 20.4839C18.2713 20.6182 18.2615 20.7488 18.1654 20.8501C18.1032 20.8983 18.0473 20.8989 17.9708 20.895C17.9375 20.89 17.9375 20.89 17.9211 20.8736C17.9104 20.7623 17.945 20.664 17.9753 20.5578C18.0354 20.3373 18.0659 20.1199 18.0846 19.8925C18.0858 19.8797 18.0869 19.867 18.0881 19.8538C18.104 19.6707 18.1027 19.4874 18.101 19.3037C18.0659 19.3389 18.0597 19.3557 18.0459 19.4022C18.0418 19.4159 18.0377 19.4295 18.0334 19.4436C18.0291 19.4584 18.0247 19.4733 18.0202 19.4887C18.0155 19.5041 18.0109 19.5196 18.0061 19.5356C17.9962 19.5688 17.9862 19.602 17.9764 19.6353C17.9507 19.7214 17.9247 19.8074 17.8987 19.8934C17.8936 19.9103 17.8884 19.9273 17.8832 19.9447C17.8421 20.0804 17.7999 20.2157 17.7555 20.3503C17.7499 20.3676 17.7444 20.3849 17.7386 20.4027C17.7049 20.5038 17.6704 20.5847 17.594 20.661C17.4569 20.6781 17.3432 20.5745 17.2382 20.4968C16.9932 20.3017 16.7657 20.0798 16.5791 19.8281C16.5715 19.8178 16.5639 19.8076 16.556 19.797C16.4776 19.6884 16.4517 19.6014 16.4657 19.4673C16.5027 19.3416 16.5708 19.2319 16.6384 19.1208C16.8356 18.7889 17.0266 18.4261 17.1034 18.0445C17.0927 18.0445 17.0819 18.0445 17.0707 18.0445C17.0664 18.0534 17.0621 18.0623 17.0576 18.0714C16.934 18.3152 16.796 18.5543 16.6479 18.784C16.6225 18.8235 16.5978 18.8635 16.573 18.9034C16.4193 19.1511 16.2629 19.3976 16.1002 19.6396C16.0166 19.7641 15.9353 19.8901 15.8538 20.016C15.8296 20.0533 15.8055 20.0905 15.7813 20.1277C15.6699 20.2991 15.5605 20.4716 15.4518 20.6447C15.4425 20.6594 15.4332 20.6742 15.4237 20.6893C15.1685 21.0949 14.9199 21.5036 14.6832 21.9202C14.6734 21.9375 14.6636 21.9547 14.6535 21.9724C14.5163 22.2139 14.3832 22.4572 14.258 22.7052C14.2494 22.7222 14.2409 22.7391 14.232 22.7566C14.1466 22.9268 14.0623 23.0971 14.0004 23.2775C13.9945 23.2944 13.9945 23.2944 13.9885 23.3116C13.9601 23.4007 13.9418 23.497 13.9754 23.5871C14.1855 23.9773 14.7363 24.2284 15.1158 24.4106C15.1527 24.4284 15.1894 24.4469 15.2256 24.4662C15.718 24.7261 16.5351 25.0558 17.1065 24.8955C17.2297 24.8409 17.3085 24.7206 17.3835 24.6134C17.402 24.5874 17.4205 24.5613 17.4391 24.5353C17.4484 24.522 17.4578 24.5088 17.4675 24.4951C17.5134 24.4303 17.5598 24.366 17.6063 24.3017C17.6197 24.2831 17.6197 24.2831 17.6334 24.2641C17.7063 24.1633 17.78 24.0632 17.8557 23.9644C17.8641 23.9533 17.8726 23.9423 17.8813 23.9309C18.0051 23.7696 18.1313 23.6111 18.2645 23.4574C18.2749 23.4454 18.2852 23.4334 18.2959 23.4211C18.3234 23.3894 18.3511 23.358 18.379 23.3266C18.3898 23.3143 18.4006 23.3019 18.4118 23.2892C18.642 23.0293 18.9359 22.7011 19.2948 22.6398C19.3496 22.6365 19.4035 22.6366 19.4583 22.6398C19.4338 22.7023 19.3994 22.7287 19.3448 22.7665C19.3287 22.7779 19.3125 22.7893 19.2959 22.8011C19.2793 22.8126 19.2628 22.8241 19.2457 22.836C19.1236 22.9218 19.0116 23.0125 18.9023 23.114C18.8785 23.1355 18.8547 23.157 18.831 23.1785C18.6615 23.3322 18.5049 23.4905 18.3626 23.67C18.3364 23.7014 18.3102 23.7327 18.2839 23.7641C18.2313 23.8282 18.1878 23.8906 18.15 23.9644C18.2799 23.8811 18.3895 23.7828 18.5011 23.6773C18.5494 23.6318 18.5991 23.5878 18.6486 23.5436C18.6859 23.5099 18.7226 23.4757 18.7593 23.4414C18.8633 23.3445 18.972 23.2553 19.0852 23.1694C19.105 23.1542 19.1248 23.139 19.1445 23.1237C19.5491 22.809 19.5491 22.809 19.7709 22.7985C19.8017 22.8033 19.8017 22.8033 19.8508 22.836C19.861 22.8728 19.861 22.8728 19.8508 22.9178C19.7767 23.0008 19.6822 23.0466 19.583 23.0926C19.4235 23.1694 19.2764 23.2582 19.1312 23.3593C19.122 23.3657 19.1129 23.3721 19.1034 23.3787C18.9901 23.4584 18.8872 23.5471 18.7863 23.6419C18.7271 23.6972 18.6665 23.7509 18.6057 23.8045C18.574 23.8315 18.574 23.8315 18.5589 23.8663C18.5705 23.8594 18.5705 23.8594 18.5824 23.8524C18.9917 23.6119 19.4131 23.3963 19.8508 23.2121C19.865 23.206 19.8792 23.1999 19.8939 23.1936C19.9483 23.1736 19.9765 23.1746 20.0307 23.1958C20.1328 23.3818 20.1195 23.6387 20.1288 23.8468C20.1301 23.8751 20.1315 23.9033 20.1328 23.9316C20.1404 24.0924 20.1469 24.2531 20.1527 24.414C20.1729 25.6149 20.1729 25.6149 20.7744 26.6071C20.8255 26.654 20.8796 26.6969 20.9338 26.74C20.9825 26.7798 21.0284 26.822 21.0742 26.865C21.1517 26.9374 21.2327 27.0034 21.3167 27.0682C21.3969 27.1303 21.474 27.1955 21.5506 27.262C21.6096 27.3131 21.6695 27.3629 21.7304 27.4118C21.7901 27.4603 21.8454 27.5104 21.8986 27.5658C21.9268 27.594 21.9559 27.6197 21.9863 27.6455C22.184 27.8174 22.3745 28.0071 22.5327 28.2162C22.5488 28.2364 22.5649 28.2565 22.581 28.2767C23.0138 28.8218 23.6421 29.7655 23.5793 30.4893C23.5597 30.5969 23.4974 30.6799 23.4158 30.7509C23.2819 30.8322 23.128 30.8557 22.9742 30.8654C22.9596 30.8665 22.945 30.8675 22.9299 30.8687C22.8336 30.8725 22.7447 30.8611 22.6512 30.8386C22.6392 30.8358 22.6272 30.8329 22.6148 30.8299C22.4732 30.7949 22.336 30.7479 22.1985 30.6998C22.171 30.6903 22.1436 30.6808 22.1161 30.6713C21.9108 30.6 21.7073 30.5244 21.5052 30.4444C21.4496 30.4224 21.394 30.4006 21.3383 30.379C21.1181 30.2931 20.8987 30.2056 20.6804 30.1152C20.634 30.0961 20.5876 30.0772 20.5412 30.0582C19.9121 29.8005 19.3439 29.4705 18.7691 29.1101C18.6642 29.0444 18.5589 28.9793 18.4535 28.9143C18.388 28.8738 18.3227 28.8332 18.2579 28.7917C18.027 28.644 17.7916 28.5041 17.5551 28.3655C17.5051 28.3361 17.4553 28.3064 17.4055 28.2767C16.9504 28.0089 16.3583 28.0183 15.8432 28.0159C15.8134 28.0156 15.8134 28.0156 15.7829 28.0154C15.6586 28.0158 15.541 28.0282 15.4191 28.0527C15.4358 28.2123 15.4697 28.3488 15.5284 28.4983C15.5357 28.5175 15.5431 28.5367 15.5506 28.5565C15.5822 28.6393 15.6146 28.7218 15.6481 28.8039C15.8493 29.2984 15.8993 29.8127 15.8933 30.3421C15.4272 30.3653 14.9782 30.0873 14.6021 29.8331C14.5485 29.8001 14.4963 29.7768 14.4379 29.7534C14.6098 30.0973 15.1436 30.3398 15.471 30.5041C15.5576 30.5478 15.6361 30.594 15.7134 30.6528C15.7084 30.6837 15.7084 30.6837 15.6971 30.7182C15.616 30.7646 15.5457 30.7784 15.4518 30.7673C15.4075 30.7536 15.3679 30.7339 15.3271 30.7121C15.3102 30.7033 15.3102 30.7033 15.2929 30.6943C15.0386 30.5581 14.8137 30.3646 14.6137 30.1582C14.5838 30.1283 14.5527 30.1008 14.5207 30.0733C14.4584 30.0198 14.4011 29.9622 14.3434 29.9037C14.3001 29.861 14.2545 29.8215 14.2083 29.7819C14.1746 29.7519 14.1433 29.7203 14.1118 29.688C14.0459 29.6208 13.9738 29.564 13.8982 29.5081C13.8982 29.7046 14.1313 29.924 14.2565 30.0595C14.286 30.0917 14.3139 30.1246 14.3418 30.1581C14.5403 30.3857 14.7847 30.5724 15.0266 30.7509C15.0158 30.7563 15.005 30.7617 14.9939 30.7673C14.9633 30.7562 14.9633 30.7562 14.9261 30.7377C14.9056 30.7276 14.9056 30.7276 14.8847 30.7172C14.8701 30.7098 14.8556 30.7024 14.8406 30.6947C14.8257 30.6872 14.8108 30.6796 14.7955 30.6718C14.5266 30.5333 14.2944 30.3472 14.0755 30.1398C14.0308 30.0973 14.0308 30.0973 13.9872 30.0635C13.5937 29.7468 13.2806 29.2973 13.0612 28.8478C13.0535 28.8323 13.0459 28.8168 13.038 28.8009C12.9917 28.7038 12.9531 28.6065 12.9188 28.5048C12.8466 28.254 12.8466 28.254 12.6845 28.0656C12.6174 28.0383 12.548 28.0263 12.4769 28.0143C12.3862 27.9951 12.3005 27.9606 12.2141 27.9278C12.1822 27.9157 12.1503 27.9039 12.1184 27.8922C11.8612 27.7977 11.6106 27.6909 11.3675 27.5647C11.3255 27.543 11.2834 27.5216 11.2414 27.5002C10.9361 27.3441 10.6488 27.1669 10.366 26.9734C10.3543 26.9654 10.3427 26.9575 10.3308 26.9493C10.0873 26.7819 9.85356 26.6022 9.62949 26.4096C9.58195 26.3691 9.53361 26.3298 9.48493 26.2906C9.42477 26.2417 9.369 26.1912 9.31531 26.1353C9.28893 26.1089 9.26182 26.0851 9.23325 26.0612C9.13162 25.9729 9.03766 25.8764 8.94264 25.7811C8.90959 25.748 8.87645 25.7149 8.8433 25.6819C8.74229 25.5809 8.64302 25.4799 8.55076 25.3707C8.52393 25.3414 8.49703 25.3121 8.47002 25.2829C8.40794 25.2147 8.34898 25.1452 8.29205 25.0727C8.26545 25.0388 8.23864 25.0052 8.21156 24.9718C7.26763 23.8038 6.63679 22.4606 6.01296 17.2463C6.04701 16.9263 6.09858 16.6095 6.18288 16.2986C6.20246 16.2191 6.21472 16.1406 6.21329 16.0587C6.21278 16.0298 6.21278 16.0298 6.21227 16.0004C6.15352 16.1099 6.11242 16.2219 6.07326 16.3397C6.06813 16.3551 6.06813 16.3551 6.0629 16.3708C5.87018 16.9525 5.71166 17.5478 5.65626 18.159C5.65389 18.1839 5.65389 18.1839 5.65148 18.2094C5.63598 18.3937 5.63663 18.5782 5.63684 18.7631C5.63686 18.7892 5.63686 18.7892 5.63689 18.8158C5.63805 19.4291 5.69509 20.0334 5.81264 20.6355C5.81495 20.6474 5.81727 20.6593 5.81966 20.6715C5.84877 20.8193 5.88274 20.9651 5.92153 21.1107C5.93811 21.1853 5.94083 21.2556 5.93426 21.3315C5.89364 21.3464 5.87445 21.3499 5.83314 21.335C5.67282 21.2442 5.59843 21.1272 5.54739 20.951C5.40202 20.4018 5.4094 19.8206 5.40226 19.2564C5.40142 19.1915 5.40052 19.1266 5.39962 19.0616C5.39789 18.9352 5.39622 18.8088 5.39461 18.6823C5.38382 18.6823 5.37302 18.6823 5.3619 18.6823C5.26737 19.1953 5.27533 19.7225 5.26643 20.2423C5.26404 20.3775 5.26054 20.5126 5.25561 20.6478C5.25503 20.6647 5.25445 20.6817 5.25385 20.6991C5.25067 20.7802 5.24437 20.859 5.23108 20.9391C5.20949 20.9444 5.18791 20.9498 5.16567 20.9554C5.11301 20.896 5.08661 20.8454 5.06448 20.7694C5.05919 20.7517 5.0539 20.7341 5.04845 20.7159C5.01333 20.5744 5.01452 20.4327 5.0144 20.288C5.01439 20.2756 5.01438 20.2632 5.01437 20.2505C5.01469 20.0192 5.03346 19.7943 5.06755 19.5654C5.071 19.5418 5.07445 19.5183 5.0779 19.4947C5.10087 19.3383 5.12475 19.182 5.14931 19.0257C5.13852 19.0257 5.12773 19.0257 5.11661 19.0257C5.1126 19.0379 5.1086 19.0501 5.10447 19.0626C5.08768 19.1126 5.07048 19.1624 5.05311 19.2122C4.90773 19.6333 4.79665 20.0545 4.74048 20.4975C4.39809 20.2353 4.0797 19.6225 4.01152 19.2026C3.99838 19.0842 3.99978 18.9654 4.00033 18.8463C4.0005 18.8012 4.00033 18.7561 4.00012 18.7109C3.99949 17.9311 4.34828 17.185 4.78652 16.5518C4.80485 16.5252 4.82286 16.4984 4.84084 16.4716C5.03781 16.1803 5.26372 15.9104 5.50173 15.652C5.53331 15.6173 5.56402 15.5821 5.59462 15.5465C5.6724 15.4573 5.75719 15.3754 5.84151 15.2925C5.89928 15.2353 5.95556 15.1781 6.0083 15.1162C6.04762 15.0703 6.08873 15.0291 6.13363 14.9887C6.14536 14.9779 6.15709 14.9671 6.16918 14.956C6.19285 14.9343 6.21687 14.9131 6.24123 14.8922C6.35395 14.7863 6.38762 14.6641 6.42941 14.5198C6.44885 14.4535 6.47039 14.388 6.49167 14.3223C6.50043 14.295 6.50918 14.2676 6.51792 14.2402C6.71074 13.6391 6.92436 13.0468 7.1771 12.4681C7.18199 12.4569 7.18687 12.4457 7.19191 12.4342C7.41615 11.9209 7.66004 11.4131 7.9457 10.9309C7.95432 10.9163 7.96293 10.9017 7.97181 10.8867C8.09792 10.6733 8.22835 10.4632 8.36703 10.2578C8.38161 10.2361 8.39613 10.2144 8.41063 10.1927C8.52438 10.0224 8.64256 9.85891 8.77257 9.70073C8.79597 9.67187 8.81877 9.64263 8.84141 9.61317C8.93056 9.49718 9.02384 9.38772 9.1244 9.28145C9.15895 9.24488 9.19204 9.20737 9.22482 9.16921C9.2977 9.08549 9.37584 9.0072 9.45427 8.92871C9.46863 8.91415 9.48298 8.89959 9.49777 8.8846C9.59669 8.78546 9.70051 8.69605 9.80995 8.6088C9.83964 8.58364 9.86929 8.55844 9.89887 8.53316C10.0012 8.44747 10.1079 8.36801 10.2154 8.28895C10.302 8.2249 10.3842 8.15779 10.4641 8.0855C10.3776 8.11101 10.3012 8.14883 10.2218 8.19077C10.2083 8.19792 10.1947 8.20508 10.1808 8.21245C10.0409 8.28752 9.90859 8.37267 9.77725 8.46162C9.76219 8.47167 9.74714 8.48173 9.73164 8.49209C9.33287 8.76421 8.94339 9.10282 8.63119 9.4713C8.60534 9.50172 8.57912 9.53166 8.55261 9.56149C8.43266 9.69709 8.32127 9.83696 8.21448 9.98311C8.19172 10.0142 8.16872 10.045 8.14564 10.0759C7.85515 10.4651 7.60561 10.881 7.37334 11.3071C7.36537 11.3216 7.35741 11.3362 7.3492 11.3512C7.02173 11.954 6.77314 12.5939 6.5468 13.2404C6.37302 13.7363 6.37302 13.7363 6.24497 13.8745C6.19182 13.8878 6.19182 13.8878 6.14685 13.8909C6.12605 13.8183 6.13706 13.7664 6.15401 13.6936C6.1932 13.5053 6.22379 13.2664 6.13625 13.0881C6.10461 13.0433 6.06805 13.0101 6.02401 12.9776C5.99967 12.9587 5.99967 12.9587 5.98332 12.926C5.97692 12.8459 5.99438 12.7879 6.02318 12.7134C6.07647 12.575 6.08562 12.4517 6.08757 12.3046C6.08849 12.2784 6.08849 12.2784 6.08943 12.2517C6.09215 12.145 6.09215 12.145 6.04861 12.0507C5.99036 12.0025 5.93509 11.977 5.86476 11.951C5.8206 11.9345 5.7804 11.917 5.73802 11.8958C5.72258 11.8593 5.71975 11.8383 5.72903 11.7998C5.73339 11.7894 5.73775 11.779 5.74224 11.7682C5.74704 11.7564 5.75185 11.7446 5.75679 11.7324C5.76207 11.7199 5.76734 11.7073 5.77278 11.6944C5.78349 11.668 5.79416 11.6415 5.80478 11.615C5.8101 11.6018 5.81543 11.5885 5.82092 11.5749C5.85746 11.4816 5.88806 11.3863 5.91791 11.2907C5.92196 11.2778 5.926 11.2649 5.93017 11.2516C5.96229 11.1383 5.97176 11.0215 5.91388 10.9156C5.84859 10.8388 5.7574 10.7876 5.67261 10.7347C5.72175 10.6317 5.77899 10.5366 5.84023 10.4403C5.90709 10.3336 5.97202 10.2265 6.02931 10.1143C6.03473 10.104 6.04014 10.0937 6.04572 10.083C6.07702 10.0198 6.09018 9.97102 6.08144 9.90069C6.03472 9.79572 5.94918 9.71544 5.86649 9.63815C5.83614 9.60634 5.83614 9.60634 5.81979 9.55728C5.83025 9.54716 5.8407 9.53704 5.85147 9.52662C5.89036 9.48783 5.92663 9.44726 5.96288 9.40601C6.02361 9.33772 6.08732 9.27346 6.15258 9.2095C6.38939 8.99153 6.38939 8.99153 6.49116 8.69861C6.48529 8.61302 6.46394 8.55445 6.42486 8.47797C6.41464 8.42074 6.41464 8.42074 6.42486 8.3635C6.85093 7.8867 7.76232 7.81611 8.35696 7.72035C8.66432 7.67753 8.66432 7.67753 8.91257 7.50803C8.9649 7.43051 9.00473 7.34488 9.04459 7.26044C9.07981 7.18653 9.1041 7.13809 9.17827 7.10155C9.25259 7.07804 9.32682 7.08245 9.40419 7.08285C9.42214 7.0829 9.44009 7.08296 9.45859 7.08302C9.65934 7.0856 9.85669 7.10877 10.0552 7.13702C10.0685 7.13885 10.0817 7.14068 10.0954 7.14257C10.2572 7.1655 10.4168 7.19936 10.5765 7.23411C10.5948 7.23805 10.6131 7.24199 10.6319 7.24605C10.7392 7.27 10.8421 7.29953 10.9456 7.33676C11.0299 7.36268 11.0841 7.34956 11.1623 7.31217C11.2817 7.24634 11.3882 7.16498 11.4948 7.0807C11.9234 6.74244 12.3775 6.43841 12.8582 6.17885C12.9058 6.15307 12.9532 6.127 13.0007 6.10096C13.4093 5.87814 13.8271 5.67417 14.2544 5.48976C14.3234 5.45996 14.3915 5.42878 14.4593 5.39643C14.8058 5.23314 15.163 5.09096 15.5172 4.9457C15.5356 4.93813 15.5541 4.93057 15.5731 4.92277C15.772 4.84125 15.9713 4.76066 16.171 4.68106C16.4032 4.5885 16.6344 4.4936 16.8652 4.39758C16.9224 4.37383 16.9796 4.35018 17.0369 4.32658C17.8219 4.0121 17.8219 4.0121 18.5879 3.65597C18.8041 3.54585 19.0248 3.44362 19.2452 3.3421C19.2692 3.33101 19.2931 3.31987 19.3171 3.30869C19.557 3.19684 19.8001 3.09506 20.047 2.99968C20.061 2.99426 20.075 2.98884 20.0895 2.98326C20.1784 2.94915 20.2678 2.91656 20.3577 2.8852C20.3705 2.88073 20.3833 2.87625 20.3965 2.87164C20.9488 2.6809 21.5296 2.5696 22.1022 2.45877C22.4584 2.38943 22.7726 2.27895 23.09 2.1012C23.2706 2.00172 23.4511 1.95845 23.6447 2.05119ZM23.0928 2.34555C23.0844 2.35348 23.076 2.36141 23.0674 2.36958C23.0501 2.38607 23.0329 2.40264 23.0157 2.41929C22.9921 2.4422 22.9682 2.46482 22.9443 2.48743C22.8272 2.60047 22.7276 2.72228 22.6308 2.8525C22.6187 2.8685 22.6187 2.8685 22.6064 2.88483C21.9569 3.75175 21.8178 5.01045 21.9511 6.06273C21.9779 6.24887 22.0155 6.43372 22.0529 6.61799C22.0567 6.63655 22.0567 6.63655 22.0605 6.65548C22.0653 6.67883 22.0701 6.70216 22.0749 6.72549C22.0843 6.77106 22.0911 6.81233 22.0911 6.85901C21.9898 6.61789 21.9038 6.37392 21.8295 6.12312C21.8257 6.11038 21.8219 6.09763 21.818 6.0845C21.7212 5.75054 21.7258 5.39166 21.7271 5.04683C21.7273 4.99001 21.7271 4.9332 21.7269 4.87639C21.7268 4.6997 21.7295 4.53067 21.7641 4.35699C21.7704 4.30798 21.7754 4.25897 21.7804 4.20981C21.6785 4.2923 21.6587 4.45267 21.6281 4.57264C21.6208 4.60144 21.6208 4.60144 21.6132 4.63081C21.5773 4.77268 21.5445 4.91509 21.5137 5.05813C21.5097 5.07645 21.5058 5.09477 21.5017 5.11365C21.4793 5.2197 21.4607 5.32579 21.4449 5.433C21.4372 5.48423 21.4288 5.53528 21.4201 5.58634C21.4173 5.60292 21.4146 5.6195 21.4117 5.63659C21.4061 5.66982 21.4005 5.70304 21.3947 5.73624C21.3523 5.99257 21.3519 6.25037 21.3522 6.50946C21.3522 6.5254 21.3522 6.54133 21.3522 6.55775C21.3533 7.08561 21.3994 7.64172 21.6496 8.1182C21.657 8.13243 21.6643 8.14666 21.6719 8.16132C21.7624 8.32455 21.887 8.42106 22.0628 8.47931C22.2406 8.52303 22.4159 8.5028 22.5817 8.42891C22.5968 8.42236 22.6119 8.4158 22.6275 8.40905C22.832 8.3094 22.9524 8.14767 23.0596 7.95454C23.0887 7.90561 23.0887 7.90561 23.1214 7.88926C23.1388 8.03902 23.0686 8.18529 22.9793 8.30218C22.9314 8.36036 22.9314 8.36036 22.8925 8.37985C22.8925 8.39065 22.8925 8.40144 22.8925 8.41256C22.8832 8.41686 22.8739 8.42116 22.8643 8.42559C22.8244 8.44667 22.7906 8.47138 22.7545 8.49841C22.5295 8.65758 22.2825 8.7258 22.0094 8.69056C21.8963 8.65512 21.8093 8.59901 21.7314 8.51068C21.7206 8.51068 21.7098 8.51068 21.6987 8.51068C21.6944 8.5014 21.6901 8.49213 21.6856 8.48257C21.6645 8.44247 21.6398 8.40811 21.6128 8.37168C21.4968 8.20691 21.4285 8.02579 21.3655 7.83611C21.3581 7.81415 21.3506 7.7922 21.3432 7.77025C21.3253 7.7173 21.3075 7.6643 21.2898 7.61126C21.2844 7.61126 21.2791 7.61126 21.2735 7.61126C21.2717 7.62875 21.2699 7.64625 21.2681 7.66428C21.2609 7.73396 21.2534 7.80362 21.246 7.87327C21.2425 7.90594 21.2391 7.93862 21.2357 7.9713C21.1569 8.73969 21.1569 8.73969 21.0118 9.03398C21.0047 9.04973 20.9975 9.06547 20.9901 9.0817C20.8363 9.39506 20.543 9.55301 20.2269 9.67175C20.0299 9.72566 19.8199 9.72336 19.6172 9.72356C19.5974 9.72361 19.5775 9.72367 19.557 9.72372C19.5152 9.7238 19.4734 9.72384 19.4317 9.72384C19.369 9.72388 19.3062 9.72417 19.2435 9.72448C18.6823 9.72578 18.2745 9.65708 17.823 9.31198C17.8088 9.30125 17.7946 9.29052 17.7799 9.27947C17.4437 9.01838 17.1443 8.7057 16.9031 8.35558C16.8691 8.30661 16.8342 8.25823 16.7989 8.21019C16.7872 8.19421 16.7755 8.17823 16.7635 8.16177C16.7276 8.11851 16.6906 8.08616 16.6456 8.05279C16.6545 8.15277 16.6854 8.23503 16.7253 8.32671C16.7317 8.34165 16.7382 8.35659 16.7449 8.37199C16.8447 8.59662 16.9691 8.80704 17.1198 9.00127C17.1322 9.01797 17.1445 9.03466 17.1573 9.05186C17.2564 9.1849 17.3646 9.30698 17.4796 9.42645C17.4911 9.43854 17.4911 9.43854 17.5029 9.45087C17.6085 9.56089 17.7199 9.65898 17.8393 9.75352C17.8516 9.76385 17.864 9.77417 17.8766 9.78482C18.085 9.95821 18.3191 10.1022 18.5589 10.2278C18.5755 10.2366 18.5755 10.2366 18.5926 10.2457C19.4844 10.7142 20.5496 10.7676 21.5053 10.4734C21.734 10.3997 21.9563 10.3153 22.1729 10.2114C22.1857 10.2054 22.1984 10.1994 22.2116 10.1932C22.7765 9.92662 23.2777 9.55056 23.7388 9.13261C23.82 9.05913 23.9023 8.98761 23.9881 8.91951C23.8364 9.13888 23.6778 9.34395 23.4975 9.54093C23.4771 9.5636 23.4771 9.5636 23.4563 9.58673C23.3104 9.74798 23.1606 9.90944 22.9941 10.0498C22.964 10.0753 22.9346 10.1013 22.9052 10.1277C22.4595 10.5258 21.9328 10.7951 21.3553 10.9473C21.3364 10.9523 21.3175 10.9572 21.2981 10.9624C21.0763 11.0166 20.8477 11.055 20.6194 11.0618C20.6039 11.0623 20.5884 11.0628 20.5725 11.0634C19.9543 11.082 19.3257 10.9691 18.7715 10.6856C18.7575 10.6786 18.7436 10.6716 18.7293 10.6644C18.546 10.5719 18.365 10.4804 18.1991 10.3586C18.1894 10.3516 18.1797 10.3446 18.1697 10.3374C17.894 10.1384 17.6374 9.91301 17.3978 9.67175C17.3345 9.69798 17.2927 9.73919 17.2435 9.78622C16.9357 10.0728 16.575 10.2788 16.1426 10.2796C16.1305 10.2796 16.1185 10.2797 16.1061 10.2798C16.0672 10.2799 16.0283 10.2799 15.9894 10.2799C15.9761 10.2799 15.9628 10.2798 15.9491 10.2798C15.413 10.2782 14.934 10.1991 14.5197 9.83528C14.5052 9.82272 14.4908 9.81015 14.476 9.79721C14.281 9.61465 14.1451 9.37638 14.0138 9.14629C13.989 9.10283 13.9636 9.05967 13.9381 9.0166C13.9307 9.00393 13.9232 8.99126 13.9155 8.97821C13.9098 8.96963 13.9041 8.96105 13.8982 8.95221C13.8928 8.95221 13.8874 8.95221 13.8819 8.95221C13.8686 9.75119 14.2126 10.4219 14.746 11.0065C14.7781 11.0419 14.8094 11.0777 14.8406 11.1139C14.9329 11.2196 15.0332 11.3154 15.1411 11.4052C15.156 11.4177 15.1709 11.4301 15.1863 11.443C15.3195 11.5501 15.4604 11.633 15.6114 11.7128C15.6453 11.7308 15.6789 11.7492 15.7125 11.7678C15.8535 11.845 15.9977 11.9135 16.1437 11.9806C17.0152 12.3817 17.0152 12.3817 17.2997 12.6644C17.3107 12.675 17.3218 12.6856 17.3332 12.6966C17.3815 12.7437 17.4259 12.7926 17.4693 12.8443C17.5989 12.9934 17.7432 13.0702 17.9323 13.1182C18.1394 13.171 18.3412 13.2475 18.5374 13.3318C18.7086 13.4048 18.8582 13.4455 19.0382 13.3783C19.055 13.3723 19.055 13.3723 19.0721 13.3662C19.0959 13.3576 19.1197 13.3489 19.1434 13.3402C19.1807 13.3265 19.2181 13.313 19.2555 13.2996C19.3055 13.2817 19.3554 13.2637 19.4053 13.2455C19.6388 13.1608 19.8695 13.0777 20.1124 13.0241C20.0192 13.1927 19.829 13.2283 19.6547 13.2789C19.6441 13.2819 19.6334 13.285 19.6224 13.2882C19.471 13.3323 19.3363 13.3921 19.1968 13.4652C19.1412 13.4937 19.0847 13.5201 19.028 13.5464C19.0177 13.5512 19.0074 13.556 18.9969 13.561C18.8069 13.6493 18.6478 13.6108 18.4586 13.5426C18.3724 13.5101 18.2898 13.4713 18.2083 13.4283C18.0837 13.363 17.955 13.3241 17.8193 13.2882C17.5511 13.2135 17.3596 13.0578 17.1606 12.8713C16.8752 12.6052 16.5447 12.4446 16.1815 12.3097C15.487 12.0506 14.8517 11.6586 14.2889 11.1783C14.1883 11.0927 14.085 11.011 13.98 10.9309C13.9707 10.9238 13.9614 10.9166 13.9518 10.9093C13.5284 10.5858 13.0923 10.5347 12.5716 10.5344C12.5565 10.5344 12.5415 10.5344 12.526 10.5343C11.6688 10.5353 10.9901 10.7839 10.3333 11.3398C10.3158 11.3543 10.2984 11.3689 10.281 11.3834C10.0496 11.5779 9.8338 11.7887 9.61985 12.0021C9.61142 12.0105 9.60299 12.0188 9.59431 12.0275C9.50783 12.1136 9.42269 12.2003 9.34327 12.293C9.30972 12.3322 9.27464 12.3699 9.23964 12.4078C9.16707 12.4876 9.09749 12.5691 9.03037 12.6535C9.01476 12.6731 8.99908 12.6926 8.98335 12.7121C8.83127 12.9008 8.69497 13.0962 8.56712 13.3021C8.55479 13.3219 8.55479 13.3219 8.54222 13.3421C8.0171 14.1898 7.6494 15.1113 7.44786 16.0875C7.43971 16.1266 7.43122 16.1656 7.42259 16.2046C7.31012 16.7243 7.23327 17.2683 7.21326 17.7994C7.21037 17.854 7.20446 17.9072 7.19751 17.9614C7.14262 18.4233 7.15507 18.8971 7.15558 19.3613C7.15566 19.4357 7.15555 19.5102 7.15525 19.5847C7.15217 20.3599 7.17105 21.141 7.31528 21.9049C7.32469 21.9552 7.33367 22.0055 7.34261 22.0559C7.52821 23.0838 7.96746 24.0974 8.59982 24.9292C8.60759 24.9395 8.61537 24.9497 8.62338 24.9603C8.79405 25.1842 8.97974 25.3944 9.17218 25.5997C9.18257 25.6108 9.19296 25.6219 9.20366 25.6334C9.43941 25.8882 9.43941 25.8882 9.69337 26.1245C9.73661 26.1633 9.77735 26.2043 9.81813 26.2456C9.88907 26.3173 9.96205 26.3848 10.0389 26.4501C10.0632 26.4714 10.0632 26.4714 10.0881 26.4932C10.2355 26.6221 10.3888 26.742 10.5458 26.8589C10.5575 26.8676 10.5691 26.8763 10.5811 26.8853C11.2079 27.3527 11.9137 27.7411 12.6881 27.8891C12.6765 27.7674 12.6554 27.6485 12.6329 27.5283C12.5772 27.2221 12.5402 26.9168 12.5188 26.6062C12.5176 26.5894 12.5164 26.5726 12.5152 26.5552C12.5143 26.5404 12.5133 26.5256 12.5123 26.5103C12.5088 26.4657 12.5088 26.4657 12.4997 26.4193C12.4908 26.3614 12.49 26.3064 12.4903 26.2478C12.4903 26.2311 12.4903 26.2311 12.4903 26.2141C12.4904 26.179 12.4906 26.1438 12.4908 26.1087C12.4909 26.0847 12.491 26.0607 12.4911 26.0368C12.4912 25.9783 12.4915 25.9198 12.4919 25.8613C12.4979 25.8751 12.4979 25.8751 12.504 25.889C12.6289 26.1722 12.7727 26.4213 12.9776 26.6548C12.9969 26.6768 13.0158 26.6989 13.0348 26.7211C13.0948 26.7906 13.157 26.8533 13.2272 26.9124C13.2492 26.931 13.2707 26.9502 13.2916 26.9699C14.0877 27.7139 15.2703 27.7662 16.2981 27.882C16.9665 27.958 16.9665 27.958 17.2506 28.0527C17.3205 28.0595 17.3787 28.0643 17.4397 28.0271C17.4973 27.9931 17.5477 28.0059 17.6104 28.02C17.652 28.037 17.6896 28.0541 17.729 28.0751C17.7455 28.0837 17.7455 28.0837 17.7623 28.0924C17.799 28.1116 17.8356 28.1311 17.872 28.1508C17.8854 28.1579 17.8988 28.1651 17.9125 28.1725C18.0625 28.253 18.2101 28.336 18.3545 28.4264C18.586 28.5698 18.8271 28.6986 19.0667 28.8279C19.1155 28.8543 19.1642 28.881 19.2129 28.9076C20.3466 29.5253 20.3466 29.5253 21.5515 29.9823C21.5635 29.986 21.5754 29.9897 21.5878 29.9935C21.8187 30.0641 22.0526 30.1179 22.2887 30.1683C22.3434 30.1801 22.3978 30.1926 22.4523 30.2055C22.5015 30.2146 22.5482 30.2134 22.5981 30.2113C22.5981 30.2005 22.5981 30.1897 22.5981 30.1786C22.278 30.0339 21.9566 29.8925 21.6345 29.7525C21.5972 29.7363 21.5599 29.7201 21.5226 29.7039C21.4981 29.6932 21.4736 29.6826 21.4491 29.6719C21.4137 29.6566 21.3783 29.6412 21.3429 29.6258C21.3325 29.6213 21.3221 29.6167 21.3113 29.6121C21.2263 29.575 21.1436 29.5338 21.061 29.4918C20.9792 29.4505 20.8963 29.4115 20.8136 29.3722C20.5329 29.2384 20.2558 29.0985 19.9816 28.9521C19.9666 28.9441 19.9516 28.9361 19.9361 28.9279C19.701 28.8025 19.4696 28.6717 19.2402 28.5362C19.2018 28.5136 19.1632 28.4912 19.1246 28.469C18.8393 28.3044 18.564 28.1234 18.2911 27.9392C18.2747 27.9282 18.2583 27.9172 18.2414 27.9059C17.8838 27.6626 17.8838 27.6626 17.8393 27.5294C17.83 27.4299 17.8559 27.3495 17.8864 27.2565C18.0444 26.7471 17.9823 26.2019 17.7415 25.7266C17.6822 25.6142 17.6213 25.5078 17.5286 25.4198C17.5244 25.5311 17.5354 25.6287 17.5613 25.7366C17.6245 26.0305 17.6231 26.3573 17.4796 26.6299C17.4779 26.6176 17.4763 26.6052 17.4746 26.5925C17.4669 26.5355 17.4589 26.4785 17.4509 26.4214C17.4484 26.402 17.4458 26.3826 17.4432 26.3626C17.4064 26.104 17.3282 25.8493 17.1247 25.6739C16.9696 25.5632 16.7397 25.5404 16.5556 25.5138C16.545 25.5123 16.5344 25.5107 16.5234 25.509C16.3442 25.4823 16.1644 25.4594 15.9845 25.4369C15.9677 25.4348 15.9677 25.4348 15.9506 25.4326C15.8366 25.4183 15.7227 25.404 15.6087 25.3902C15.3581 25.3597 15.1102 25.3245 14.8631 25.2726C14.8455 25.2691 14.8279 25.2656 14.8098 25.2619C14.4193 25.1821 14.0935 25.0163 13.7598 24.805C13.6829 24.7567 13.608 24.7145 13.5221 24.6839C13.5059 24.6893 13.4897 24.6947 13.4731 24.7003C13.4544 24.7484 13.4545 24.796 13.4541 24.8472C13.4538 24.8716 13.4538 24.8716 13.4536 24.8964C13.4535 24.914 13.4534 24.9315 13.4534 24.9496C13.4533 24.9679 13.4532 24.9863 13.4531 25.0051C13.4529 25.0441 13.4528 25.0831 13.4528 25.1221C13.4526 25.1805 13.4521 25.2389 13.4516 25.2973C13.4503 25.5815 13.4559 25.8737 13.5558 26.1434C13.5606 26.157 13.5653 26.1705 13.5702 26.1844C13.6355 26.3678 13.7097 26.5481 13.7838 26.7281C13.5012 26.4135 13.3189 26.0805 13.2278 25.6651C13.2251 25.653 13.2224 25.6408 13.2196 25.6283C13.0785 24.9473 13.2163 24.2283 13.426 23.578C13.4294 23.5676 13.4328 23.5571 13.4362 23.5464C13.4751 23.4263 13.5181 23.3091 13.5677 23.1931C13.5867 23.1488 13.6048 23.1042 13.6227 23.0595C13.7858 22.6559 13.9789 22.2668 14.1926 21.8875C14.2109 21.8548 14.2291 21.8221 14.2474 21.7894C14.334 21.6347 14.4212 21.4807 14.5159 21.3308C14.5411 21.2907 14.566 21.2505 14.591 21.2103C14.9309 20.6633 15.29 20.1289 15.6683 19.6077C15.729 19.5239 15.7889 19.4396 15.8483 19.3548C15.9138 19.2618 15.9805 19.17 16.0492 19.0793C16.1005 19.0115 16.1506 18.9429 16.201 18.8745C16.2724 18.7774 16.3441 18.6805 16.4166 18.5842C16.487 18.4906 16.5568 18.3965 16.6261 18.3021C16.7056 18.194 16.7857 18.0864 16.8663 17.9791C16.9846 17.8218 17.1014 17.6635 17.2179 17.5049C17.4927 17.1311 17.7663 16.7592 18.0804 16.417C18.1119 16.3825 18.1429 16.3475 18.1736 16.3121C18.2289 16.2484 18.2859 16.1863 18.3431 16.1242C18.392 16.0711 18.4403 16.0175 18.4883 15.9636C18.5432 15.9024 18.6003 15.8441 18.6589 15.7864C18.6883 15.7565 18.7157 15.7257 18.7428 15.6938C18.7933 15.635 18.8472 15.5806 18.9023 15.5262C18.9647 15.4645 19.0246 15.4021 19.0815 15.3352C19.1295 15.2805 19.1795 15.2277 19.2294 15.1746C19.3073 15.0914 19.3842 15.0078 19.4583 14.9211C19.473 14.9042 19.4877 14.8873 19.5024 14.8704C19.6097 14.7467 19.713 14.6205 19.813 14.4908C19.8336 14.4643 19.8543 14.4378 19.8751 14.4113C20.0531 14.1831 20.214 13.9437 20.3741 13.7028C20.795 13.0693 20.795 13.0693 21.0438 12.7989C21.0745 12.7655 21.104 12.7315 21.1335 12.6971C21.2417 12.5731 21.3605 12.4599 21.4861 12.3537C21.5107 12.3327 21.5107 12.3327 21.5357 12.3112C21.6945 12.1758 21.8568 12.0463 22.0241 11.9214C22.1117 11.8559 22.1987 11.7896 22.2852 11.7227C22.3193 11.6964 22.3534 11.6702 22.3877 11.6442C22.5209 11.5425 22.6512 11.4376 22.7808 11.3315C22.8071 11.31 22.8335 11.2886 22.8598 11.2671C22.9662 11.1806 23.0712 11.0924 23.1756 11.0034C23.2029 10.9802 23.2303 10.9572 23.2578 10.9341C23.3799 10.8312 23.4973 10.7241 23.6128 10.6138C23.6659 10.5632 23.7192 10.5141 23.7756 10.4673C23.7918 10.453 23.8079 10.4387 23.8246 10.424C23.8246 10.4132 23.8246 10.4024 23.8246 10.3913C23.8354 10.3913 23.8462 10.3913 23.8573 10.3913C23.8573 10.3805 23.8573 10.3697 23.8573 10.3586C23.8669 10.3543 23.8765 10.3501 23.8864 10.3457C23.9253 10.3244 23.9492 10.3022 23.9794 10.2699C23.99 10.2587 24.0006 10.2474 24.0115 10.2358C24.0227 10.2237 24.0338 10.2116 24.0453 10.1991C24.057 10.1866 24.0686 10.174 24.0806 10.1611C24.1154 10.1235 24.1499 10.0857 24.1843 10.0479C24.1982 10.0328 24.1982 10.0328 24.2123 10.0174C24.5357 9.66211 24.7808 9.2297 25.0242 8.81775C25.0493 8.77538 25.0744 8.73306 25.0996 8.69076C25.2429 8.45062 25.2429 8.45062 25.3822 8.20815C25.497 8.00596 25.617 7.80294 25.7706 7.62761C25.7816 7.61469 25.7925 7.60177 25.8038 7.58845C25.9426 7.42876 26.1005 7.2903 26.2652 7.15803C26.3242 7.10911 26.3804 7.0575 26.4366 7.00533C26.4818 6.96326 26.5277 6.92236 26.575 6.88252C26.7317 6.7456 26.9035 6.56318 26.9372 6.35002C26.9389 6.2668 26.9214 6.22137 26.8663 6.15583C26.5858 5.89094 26.0762 5.87803 25.7175 5.82877C24.8763 5.71301 24.8763 5.71301 24.6707 5.4605C24.3321 4.97841 24.2142 4.29239 24.0883 3.72535C23.9478 2.89621 23.9478 2.89621 23.5139 2.23108C23.4674 2.21559 23.4355 2.21154 23.3871 2.21064C23.367 2.21001 23.367 2.21001 23.3465 2.20936C23.2403 2.22196 23.1686 2.27353 23.0928 2.34555Z" fill="white"/>
<path d="M15.3772 13.1152C15.391 13.126 15.4048 13.1367 15.4191 13.1478C15.804 13.4355 16.2563 13.6084 16.7273 13.6946C16.7417 13.6974 16.7561 13.7003 16.7709 13.7032C16.9022 13.7274 17.0315 13.7342 17.1648 13.7376C17.1857 13.7382 17.2067 13.7388 17.2283 13.7395C17.2793 13.741 17.3304 13.7424 17.3815 13.7437C17.215 13.9101 16.8204 13.9285 16.5997 13.9429C16.5856 13.9439 16.5716 13.945 16.5571 13.9461C16.5446 13.9469 16.5321 13.9477 16.5192 13.9485C16.456 13.9617 16.4134 13.9884 16.374 14.0394C16.3666 14.0524 16.3593 14.0653 16.3517 14.0787C16.3393 14.1005 16.3393 14.1005 16.3267 14.1228C16.2864 14.1985 16.2493 14.2756 16.2122 14.3528C15.956 14.8755 15.5875 15.356 15.1928 15.7822C15.1611 15.8165 15.1305 15.8515 15.1002 15.887C15.0307 15.967 14.9549 16.0406 14.8794 16.1149C14.831 16.163 14.783 16.2116 14.7352 16.2603C14.6217 16.3755 14.5096 16.4889 14.3821 16.5887C14.3358 16.625 14.2914 16.6632 14.2468 16.7016C13.49 17.332 12.462 17.5727 11.4943 17.5376C11.4772 17.5371 11.4601 17.5365 11.4425 17.536C11.2329 17.528 11.0314 17.4942 10.8269 17.4497C10.8158 17.4473 10.8047 17.4449 10.7933 17.4424C10.6577 17.4127 10.5277 17.3765 10.3987 17.325C10.3748 17.1142 10.5441 16.9418 10.6669 16.7854C10.8546 16.5503 11.0618 16.3319 11.2748 16.1197C11.3025 16.0921 11.3301 16.0645 11.3576 16.0368C11.4408 15.9535 11.5242 15.8716 11.6138 15.7952C11.6559 15.7592 11.696 15.7213 11.7366 15.6836C11.8186 15.6078 11.9034 15.5364 11.9905 15.4664C12.0475 15.4202 12.1041 15.3735 12.1607 15.3269C12.1723 15.3174 12.1839 15.3078 12.1959 15.298C12.268 15.2386 12.3393 15.1784 12.4101 15.1174C12.3263 15.1271 12.2595 15.166 12.1863 15.2053C12.1726 15.2125 12.159 15.2198 12.1449 15.2273C12.0008 15.3049 11.8613 15.3892 11.7233 15.4771C11.7128 15.4838 11.7024 15.4904 11.6916 15.4973C11.4097 15.6783 11.1449 15.8823 10.8893 16.0985C10.879 16.1072 10.8687 16.1158 10.8582 16.1247C10.7321 16.231 10.6091 16.3402 10.4882 16.4523C10.4151 16.5201 10.3414 16.5873 10.2679 16.6545C10.2469 16.6738 10.2469 16.6738 10.2255 16.6934C10.128 16.7821 10.0278 16.8671 9.92444 16.9489C9.91463 16.9569 9.90483 16.965 9.89473 16.9732C9.85357 17.0045 9.8283 17.0142 9.77624 17.0164C9.70994 16.991 9.68371 16.9597 9.64643 16.8998C9.63873 16.8132 9.68982 16.7617 9.74081 16.6974C9.80314 16.6241 9.87102 16.5566 9.9394 16.489C9.96429 16.4645 9.98904 16.4397 10.0138 16.415C10.1011 16.328 10.1901 16.2437 10.2842 16.164C10.3007 16.1496 10.3172 16.1353 10.3337 16.1209C10.4765 15.9986 10.6244 15.8842 10.7748 15.7715C10.7876 15.7619 10.8004 15.7523 10.8136 15.7424C10.9729 15.623 11.1336 15.507 11.3006 15.3987C11.331 15.3788 11.3614 15.3588 11.3917 15.3388C11.8584 15.0315 12.3443 14.7583 12.8407 14.5021C13.0268 14.406 13.2116 14.3092 13.3913 14.2016C13.2268 14.237 13.0727 14.2928 12.916 14.3528C12.903 14.3578 12.8899 14.3628 12.8765 14.3679C12.4619 14.526 12.0543 14.7005 11.6566 14.8974C11.6078 14.9216 11.5588 14.9455 11.5097 14.9694C11.2816 15.0812 11.06 15.2025 10.8402 15.3299C10.815 15.3444 10.7898 15.3589 10.7646 15.3734C10.4324 15.5655 10.1105 15.778 9.80996 16.0168C9.79451 16.029 9.77906 16.0413 9.76314 16.054C9.68574 16.1164 9.61162 16.1808 9.53911 16.2488C9.43079 16.348 9.32335 16.4354 9.17219 16.442C9.12323 16.3746 9.11052 16.3284 9.12313 16.2457C9.22057 16.0521 9.44731 15.8851 9.61373 15.7551C9.63099 15.7413 9.64824 15.7275 9.66547 15.7136C10.5039 15.0426 11.49 14.4899 12.4694 14.0554C12.5239 14.031 12.5779 14.0054 12.6319 13.9798C12.8841 13.8621 13.1413 13.7579 13.4005 13.6568C13.4132 13.6519 13.4258 13.6469 13.4388 13.6418C13.5854 13.5847 13.7321 13.5303 13.8819 13.482C13.9061 13.4739 13.9303 13.4658 13.9545 13.4576C14.2336 13.3638 14.5137 13.2773 14.7975 13.1987C14.8949 13.1717 14.9918 13.1435 15.0885 13.1143C15.2845 13.0556 15.2845 13.0556 15.3772 13.1152Z" fill="white"/>
<path d="M9.94762 17.8077C10.0892 17.8334 10.225 17.8725 10.3614 17.9178C10.4028 17.9314 10.4443 17.9447 10.4858 17.9579C10.8835 18.0859 10.8835 18.0859 10.9363 18.1825C10.9428 18.2073 10.9489 18.2322 10.9547 18.2571C10.96 18.2737 10.9653 18.2902 10.9707 18.3073C11.0345 18.5098 11.052 18.7121 11.0615 18.9226C11.0659 19.0028 11.0776 19.0791 11.0947 19.1576C11.1362 19.3508 11.1362 19.3508 11.0998 19.454C11.0632 19.5089 11.0309 19.5531 10.971 19.5817C10.8542 19.6032 10.7592 19.5741 10.6512 19.5312C10.601 19.5125 10.5659 19.505 10.5131 19.5163C10.4653 19.5566 10.4333 19.5952 10.3987 19.6472C10.4018 19.7338 10.4407 19.793 10.4876 19.8628C10.5531 19.9642 10.6143 20.0672 10.6716 20.1735C10.6789 20.1866 10.6861 20.1997 10.6937 20.2132C10.7417 20.3036 10.7417 20.3036 10.7434 20.3614C10.6921 20.4716 10.6098 20.5241 10.5091 20.5844C10.3299 20.6942 10.3299 20.6942 10.2024 20.8573C10.2013 20.8879 10.2011 20.9186 10.2014 20.9493C10.2016 20.9657 10.2017 20.9821 10.2019 20.999C10.202 21.0116 10.2022 21.0242 10.2024 21.0372C10.1664 21.0506 10.1302 21.0638 10.0941 21.077C10.074 21.0844 10.0539 21.0918 10.0332 21.0995C9.98011 21.1168 9.93055 21.1279 9.87537 21.1353C9.86853 21.1891 9.86853 21.1891 9.87537 21.2498C9.9094 21.292 9.9094 21.292 9.95714 21.3315C9.9776 21.353 9.99768 21.3748 10.0174 21.3969C10.0269 21.4074 10.0365 21.4179 10.0462 21.4286C10.1062 21.5084 10.1122 21.5856 10.1108 21.6827C10.1043 21.724 10.1043 21.724 10.0655 21.7639C10.0513 21.7723 10.0371 21.7807 10.0225 21.7894C9.96625 21.8746 9.97572 21.9863 9.98984 22.0838C10.0169 22.1943 10.0534 22.309 10.1043 22.4108C10.1262 22.6142 10.1262 22.6142 10.0822 22.6986C10.0533 22.7316 10.0239 22.7593 9.98984 22.787C9.98107 22.7948 9.9723 22.8026 9.96327 22.8106C9.92542 22.8435 9.88588 22.8728 9.84471 22.9014C9.8063 22.9312 9.8063 22.9312 9.80178 22.976C9.8059 23.0168 9.8059 23.0168 9.83455 23.037C9.87866 23.0874 9.86645 23.148 9.86483 23.2119C9.85479 23.2971 9.81814 23.3434 9.76671 23.411C9.71273 23.4532 9.66402 23.4502 9.59839 23.4482C9.58554 23.448 9.5727 23.4478 9.55946 23.4476C9.40137 23.4429 9.24587 23.4201 9.09042 23.392C9.07068 23.3885 9.07068 23.3885 9.05054 23.3849C8.76256 23.3309 8.76256 23.3309 8.66524 23.2285C8.64378 23.1805 8.64378 23.1805 8.64889 23.1304C8.67686 23.0592 8.71269 23.0058 8.77971 22.9668C8.82903 22.9621 8.82903 22.9621 8.88192 22.9638C8.89954 22.9642 8.91717 22.9647 8.93532 22.9651C8.95543 22.966 8.95543 22.966 8.97595 22.9668C8.99965 22.8917 8.98496 22.8509 8.94938 22.7819C8.92012 22.7286 8.92012 22.7286 8.87783 22.6888C8.81829 22.6761 8.77124 22.6781 8.71091 22.6851C8.68831 22.687 8.68831 22.687 8.66524 22.6888C8.65445 22.6781 8.64365 22.6673 8.63253 22.6561C8.63253 22.6346 8.63253 22.613 8.63253 22.5907C8.6811 22.5745 8.72967 22.5583 8.77971 22.5417C8.7623 22.4812 8.7623 22.4812 8.71609 22.4422C8.70336 22.4383 8.69062 22.4343 8.67751 22.4303C8.60059 22.4028 8.53157 22.3683 8.46083 22.3281C8.45083 22.3225 8.44083 22.3169 8.43053 22.3112C8.38066 22.2824 8.35433 22.2634 8.32183 22.2146C8.31263 22.1686 8.31263 22.1686 8.32183 22.1165C8.38278 22.0428 8.47136 21.9938 8.55211 21.9446C8.5958 21.9107 8.61276 21.8757 8.62167 21.8212C8.62349 21.7213 8.59795 21.6536 8.55077 21.5666C8.50471 21.4807 8.47124 21.4159 8.48536 21.3152C8.50695 21.2848 8.50695 21.2848 8.53646 21.2631C8.54689 21.2551 8.55733 21.2471 8.56808 21.2389C8.59571 21.2199 8.6238 21.2016 8.65195 21.1833C8.70326 21.148 8.73481 21.1257 8.76336 21.0699C8.75788 21.0376 8.75788 21.0376 8.74452 21.0034C8.73982 20.9904 8.73512 20.9774 8.73028 20.9639C8.70396 20.896 8.67577 20.8291 8.64684 20.7622C8.63517 20.7352 8.62354 20.7082 8.61197 20.6812C8.60688 20.6694 8.6018 20.6577 8.59656 20.6456C8.56536 20.5655 8.55512 20.4849 8.56712 20.3994C8.60779 20.3545 8.65294 20.3368 8.71367 20.3309C8.72553 20.3304 8.7374 20.3299 8.74963 20.3294C8.7626 20.3288 8.77558 20.3282 8.78894 20.3275C8.81624 20.3264 8.84354 20.3252 8.87084 20.3241C8.88379 20.3235 8.89674 20.3229 8.91009 20.3222C8.92194 20.3217 8.93379 20.3212 8.94599 20.3207C8.97752 20.3193 8.97752 20.3193 9.00866 20.3013C8.98992 20.2918 8.97118 20.2823 8.95187 20.2725C8.92684 20.2596 8.90182 20.2467 8.87681 20.2338C8.86451 20.2276 8.85221 20.2214 8.83954 20.215C8.75789 20.1726 8.67692 20.1265 8.61618 20.056C8.60085 19.9926 8.60085 19.9926 8.59983 19.9415C8.68889 19.8675 8.77359 19.8204 8.88294 19.7831C8.89648 19.7783 8.91002 19.7735 8.92397 19.7685C9.0218 19.7343 9.12032 19.7037 9.22125 19.6799C9.18551 19.6405 9.1516 19.6178 9.10371 19.595C9.08616 19.5866 9.08616 19.5866 9.06826 19.578C9.05938 19.5738 9.05051 19.5697 9.04136 19.5654C9.07185 19.491 9.12607 19.4532 9.18701 19.4035C9.24477 19.3456 9.25882 19.2869 9.26009 19.2067C9.26078 19.1867 9.26078 19.1867 9.26149 19.1663C9.24441 19.0701 9.17502 19.0111 9.10473 18.9491C8.96771 18.8207 8.8324 18.5944 8.80578 18.4065C8.80112 18.2571 8.80112 18.2571 8.84921 18.1928C8.98513 18.0646 9.18154 18.0417 9.35813 18.0112C9.48991 17.987 9.5904 17.9482 9.67709 17.8432C9.75302 17.7646 9.84858 17.7928 9.94762 17.8077Z" fill="white"/>
<path d="M23.1868 3.08144C23.2619 3.11174 23.2788 3.15389 23.312 3.22481C23.3526 3.32238 23.3858 3.42229 23.4186 3.52267C23.4309 3.56014 23.4433 3.59753 23.4558 3.63492C23.5092 3.79563 23.5571 3.95753 23.603 4.12049C23.8187 5.18799 23.8187 5.18799 24.3642 6.04135C24.4745 6.08786 24.5897 6.11081 24.7073 6.13021C24.7199 6.13229 24.7325 6.13438 24.7454 6.13653C24.8982 6.16112 25.0519 6.17864 25.2056 6.19678C25.6822 6.25345 25.6822 6.25345 25.9004 6.29687C25.9156 6.29984 25.9309 6.30281 25.9465 6.30587C26.0525 6.3285 26.162 6.35987 26.2469 6.42974C26.2698 6.48868 26.2637 6.53873 26.2448 6.59736C25.9543 7.14855 24.905 7.35727 24.353 7.5291C24.3351 7.53463 24.3172 7.54015 24.2988 7.54584C24.284 7.55043 24.2691 7.55503 24.2538 7.55976C24.1765 7.58353 24.0988 7.60601 24.0208 7.6276C23.9924 7.63576 23.9924 7.63576 23.9633 7.64409C23.6816 7.72021 23.3799 7.78044 23.0877 7.785C23.0754 7.78538 23.0632 7.78575 23.0506 7.78614C22.991 7.78527 22.9602 7.77652 22.9119 7.74112C22.8708 7.68591 22.8481 7.6323 22.8281 7.5673C22.824 7.55463 22.82 7.54196 22.8158 7.52891C22.7216 7.22287 22.665 6.90905 22.6207 6.59244C22.6155 6.55603 22.6101 6.51971 22.6044 6.4834C22.5869 6.37048 22.575 6.25729 22.5644 6.14356C22.5631 6.12975 22.5618 6.11593 22.5604 6.1017C22.537 5.83744 22.5296 5.57417 22.5297 5.30895C22.5296 5.2554 22.5293 5.20184 22.529 5.14829C22.5285 4.95245 22.5371 4.76341 22.5654 4.56957C22.5684 4.54574 22.5714 4.5219 22.5744 4.49805C22.6148 4.17735 22.7367 3.86277 22.8764 3.57277C22.8929 3.53832 22.909 3.50367 22.9251 3.46899C22.994 3.32307 23.0716 3.19661 23.1868 3.08144Z" fill="white"/>
<path d="M19.2308 4.12536C19.4011 4.11859 19.5563 4.16549 19.6872 4.27523C19.7858 4.379 19.8344 4.5089 19.8344 4.65135C19.8452 4.65135 19.856 4.65135 19.8671 4.65135C19.8702 4.62251 19.8702 4.62251 19.8733 4.59309C19.8813 4.52802 19.8967 4.46856 19.9162 4.40605C19.9216 4.40605 19.927 4.40605 19.9325 4.40605C19.9459 4.69118 19.8912 4.95871 19.6975 5.17976C19.6725 5.20559 19.6473 5.23116 19.6218 5.25641C19.6122 5.26664 19.6025 5.27686 19.5925 5.28739C19.3644 5.51043 19.0373 5.5705 18.7316 5.56814C18.7134 5.56807 18.6952 5.568 18.6764 5.56792C18.6318 5.56773 18.5872 5.56746 18.5425 5.56712C18.5425 5.55633 18.5425 5.54554 18.5425 5.53442C18.5527 5.53351 18.5628 5.53261 18.5733 5.53167C18.6192 5.52754 18.6652 5.52331 18.7112 5.51908C18.7271 5.51766 18.7431 5.51624 18.7596 5.51477C18.7749 5.51335 18.7902 5.51193 18.806 5.51046C18.8202 5.50918 18.8343 5.50789 18.8488 5.50657C18.8886 5.50256 18.8886 5.50256 18.935 5.48536C18.9194 5.47568 18.9038 5.466 18.8878 5.45604C18.8671 5.44299 18.8463 5.42994 18.8256 5.41688C18.8103 5.40738 18.8103 5.40738 18.7946 5.39768C18.7068 5.34206 18.6368 5.27664 18.5732 5.19407C18.5654 5.18418 18.5576 5.17429 18.5495 5.16411C18.4863 5.05988 18.4684 4.96229 18.47 4.84145C18.4702 4.82092 18.4702 4.82092 18.4704 4.79997C18.4752 4.62484 18.537 4.50064 18.657 4.37334C18.8205 4.22229 19.0104 4.14267 19.2308 4.12536Z" fill="#AB202B"/>
<path d="M19.4746 11.1762C19.4377 11.291 19.3437 11.3692 19.2621 11.4542C19.2476 11.4696 19.2331 11.4849 19.2182 11.5007C18.9369 11.7916 18.6044 12.0059 18.2165 12.1227C18.2055 12.126 18.1945 12.1293 18.1831 12.1328C17.8993 12.2132 17.5664 12.1964 17.2833 12.1247C17.2722 12.122 17.261 12.1193 17.2496 12.1165C16.9005 12.0304 16.5327 11.9092 16.2367 11.6995C16.2367 11.6887 16.2367 11.678 16.2367 11.6668C16.314 11.6896 16.3911 11.7127 16.4676 11.7381C16.6095 11.7848 16.7513 11.8258 16.897 11.859C16.9111 11.8622 16.9253 11.8655 16.9399 11.8688C16.9834 11.8784 17.027 11.8873 17.0707 11.8958C17.0866 11.8989 17.1024 11.902 17.1187 11.9051C17.2702 11.9317 17.4192 11.9343 17.5726 11.9336C17.5856 11.9336 17.5986 11.9335 17.6121 11.9335C17.8013 11.9328 17.9821 11.9256 18.1664 11.8794C18.184 11.8753 18.184 11.8753 18.2019 11.8712C18.3966 11.8257 18.5762 11.7556 18.7551 11.6668C18.7653 11.6618 18.7755 11.6568 18.786 11.6516C18.9464 11.5706 19.0796 11.4636 19.2161 11.3483C19.2575 11.3135 19.2996 11.2796 19.3418 11.2457C19.3542 11.2357 19.3666 11.2257 19.3795 11.2153C19.4133 11.1895 19.4317 11.1762 19.4746 11.1762Z" fill="white"/>
<path d="M19.442 4.30492C19.5526 4.3705 19.6163 4.44703 19.6545 4.56958C19.6719 4.70279 19.6686 4.83315 19.5891 4.9457C19.5035 5.04321 19.393 5.10081 19.2784 5.15829C19.2678 5.16444 19.2572 5.1706 19.2462 5.17694C19.1638 5.21179 19.0575 5.20736 18.9754 5.17439C18.8907 5.12352 18.8907 5.12352 18.8696 5.06017C18.8918 5.0546 18.8918 5.0546 18.9145 5.04893C18.9861 5.02004 19.0148 4.98375 19.048 4.91472C19.0754 4.84798 19.0935 4.78951 19.0822 4.71675C19.0638 4.66913 19.0638 4.66913 19.0168 4.63499C18.9663 4.61904 18.9162 4.60732 18.8643 4.59698C18.8205 4.58593 18.8205 4.58593 18.7878 4.55322C18.7918 4.48345 18.8153 4.45178 18.8665 4.40605C19.0339 4.266 19.24 4.20086 19.442 4.30492Z" fill="white"/>
<path d="M19.8181 11.1435C19.833 11.1843 19.8363 11.2035 19.8216 11.245C19.8147 11.2579 19.8078 11.2708 19.8007 11.2841C19.7931 11.2985 19.7855 11.3129 19.7777 11.3277C19.7694 11.3428 19.7612 11.3579 19.7527 11.3735C19.7443 11.389 19.736 11.4045 19.7274 11.4205C19.6694 11.5275 19.61 11.6325 19.5401 11.7322C19.5292 11.7477 19.5184 11.7631 19.5073 11.7791C19.1544 12.2658 18.7276 12.5199 18.1362 12.6149C18.1047 12.6196 18.0732 12.6242 18.0417 12.6286C18.0202 12.6316 18.0202 12.6316 17.9983 12.6347C17.7337 12.6688 17.7337 12.6688 17.6595 12.6317C17.6604 12.6016 17.6604 12.6016 17.6758 12.5662C17.7152 12.5484 17.75 12.5359 17.7913 12.5243C17.803 12.5209 17.8148 12.5174 17.8269 12.5138C17.9065 12.4909 17.9857 12.4748 18.0673 12.461C18.5977 12.37 19.1037 12.0095 19.4419 11.6014C19.4609 11.5792 19.4609 11.5792 19.4801 11.5565C19.564 11.4573 19.6433 11.3563 19.7198 11.2514C19.7502 11.212 19.7821 11.1777 19.8181 11.1435Z" fill="white"/>
<path d="M20.0634 11.1926C20.0688 11.1926 20.0742 11.1926 20.0797 11.1926C20.0713 11.2976 20.0525 11.3875 20.0153 11.4859C20.0103 11.4992 20.0053 11.5126 20.0002 11.5263C19.9095 11.7591 19.7822 11.9666 19.6218 12.1574C19.6101 12.1716 19.5984 12.1858 19.5863 12.2005C19.3723 12.4496 19.0953 12.632 18.8011 12.7737C18.7902 12.7791 18.7792 12.7844 18.7679 12.7899C18.6925 12.8246 18.6252 12.8373 18.5425 12.8442C18.5919 12.7864 18.6394 12.7525 18.7071 12.7175C18.8924 12.6199 19.0467 12.4816 19.1967 12.3373C19.2055 12.3288 19.2144 12.3202 19.2236 12.3115C19.3299 12.2088 19.4304 12.1043 19.5221 11.9881C19.5446 11.9598 19.5676 11.9319 19.5912 11.9046C19.7567 11.7122 19.8833 11.489 20.0057 11.2676C20.0307 11.2253 20.0307 11.2253 20.0634 11.1926Z" fill="white"/>
<path d="M20.3577 11.2417C20.3631 11.2417 20.3685 11.2417 20.3741 11.2417C20.3607 11.6804 20.1613 12.0829 19.8505 12.3898C19.7944 12.4404 19.7329 12.4818 19.6699 12.5233C19.6572 12.532 19.6445 12.5407 19.6314 12.5497C19.5631 12.5952 19.5097 12.6266 19.4256 12.6317C19.4492 12.5553 19.4937 12.5069 19.5482 12.4508C19.5661 12.4318 19.584 12.4127 19.6019 12.3937C19.6108 12.3842 19.6197 12.3747 19.6289 12.3649C19.8366 12.1415 19.9996 11.8849 20.1451 11.6178C20.1531 11.6031 20.1612 11.5883 20.1695 11.5732C20.2233 11.4745 20.2233 11.4745 20.2768 11.3757C20.2849 11.3607 20.2931 11.3457 20.3014 11.3303C20.3124 11.31 20.3124 11.31 20.3236 11.2893C20.3414 11.258 20.3414 11.258 20.3577 11.2417Z" fill="white"/>
<path d="M23.9881 8.8868C23.9881 8.94092 23.9813 8.95199 23.9516 8.99501C23.94 9.01192 23.94 9.01192 23.9282 9.02918C23.9199 9.04088 23.9117 9.05258 23.9033 9.06464C23.8954 9.07621 23.8875 9.08778 23.8793 9.09971C23.8332 9.16624 23.7857 9.22404 23.7265 9.27927C23.7072 9.22137 23.7176 9.19835 23.7428 9.14436C23.7686 9.09922 23.8026 9.06898 23.8409 9.03397C23.8672 9.00783 23.8935 8.98159 23.9196 8.95527C23.9539 8.92103 23.9539 8.92103 23.9881 8.8868Z" fill="white"/>
<path d="M10.4804 8.0855C10.4546 8.10943 10.4287 8.13326 10.4027 8.15704C10.3883 8.17032 10.3739 8.1836 10.3591 8.19729C10.3235 8.22716 10.2939 8.24736 10.2515 8.26538C10.2515 8.24919 10.2515 8.233 10.2515 8.21632C10.2353 8.21092 10.2191 8.20553 10.2024 8.19997C10.2496 8.16279 10.2972 8.13332 10.3506 8.10594C10.3646 8.0986 10.3787 8.09127 10.3931 8.08371C10.4314 8.06914 10.4314 8.06914 10.4804 8.0855Z" fill="#E6E6E6"/>
<path d="M9.97348 11.6505C9.98428 11.6559 9.99507 11.6613 10.0062 11.6668C9.9899 11.7098 9.97889 11.7291 9.93873 11.7527C9.85044 11.8064 9.78069 11.8863 9.71592 11.9663C9.68387 12.0046 9.65499 12.0318 9.61372 12.0593C9.60292 12.0539 9.59213 12.0485 9.58101 12.043C9.71053 11.9134 9.84004 11.7839 9.97348 11.6505Z" fill="#EDEDED"/>
<path d="M5.3619 18.6823C5.37269 18.6823 5.38349 18.6823 5.39461 18.6823C5.41161 18.7381 5.41284 18.789 5.41256 18.8471C5.41248 18.8756 5.41248 18.8756 5.4124 18.9046C5.41226 18.9244 5.41212 18.9441 5.41198 18.9644C5.41191 18.9844 5.41183 19.0044 5.41176 19.025C5.41156 19.0743 5.4113 19.1236 5.41096 19.1729C5.40556 19.1729 5.40017 19.1729 5.39461 19.1729C5.39461 19.065 5.39461 18.9571 5.39461 18.8459C5.37302 18.8459 5.35143 18.8459 5.32919 18.8459C5.3435 18.7191 5.3435 18.7191 5.3619 18.6823Z" fill="#D0D0D0"/>
<path d="M5.11661 19.0257C5.12741 19.0257 5.1382 19.0257 5.14932 19.0257C5.14392 19.1067 5.13853 19.1876 5.13297 19.271C5.12757 19.271 5.12217 19.271 5.11661 19.271C5.11122 19.2441 5.10582 19.2171 5.10026 19.1893C5.08913 19.209 5.08913 19.209 5.07777 19.2291C5.0512 19.271 5.0512 19.271 5.01849 19.2874C5.04408 19.1956 5.07023 19.1097 5.11661 19.0257Z" fill="#D3D3D3"/>
<path d="M18.7224 23.6864C18.7332 23.6918 18.744 23.6972 18.7551 23.7027C18.7477 23.7095 18.7403 23.7162 18.7326 23.7232C18.7046 23.7502 18.7046 23.7502 18.6917 23.7845C18.6668 23.8289 18.6365 23.8438 18.5916 23.8663C18.5808 23.8663 18.57 23.8663 18.5589 23.8663C18.5825 23.8099 18.6125 23.7786 18.659 23.7395C18.6709 23.7295 18.6827 23.7195 18.6949 23.7091C18.7085 23.6979 18.7085 23.6979 18.7224 23.6864Z" fill="#D0D0D0"/>
<path d="M21.0445 12.7788C21.0445 12.795 21.0445 12.8112 21.0445 12.8279C21.0037 12.8637 21.0037 12.8637 20.9628 12.8933C20.9839 12.8461 21.0063 12.8136 21.0445 12.7788ZM20.9464 12.8933C20.9572 12.9041 20.968 12.9149 20.9791 12.926C20.9629 12.9368 20.9467 12.9476 20.9301 12.9587C20.9277 12.9695 20.9253 12.9803 20.9229 12.9914C20.9137 13.0241 20.9137 13.0241 20.882 13.0436C20.8709 13.0479 20.8598 13.0523 20.8483 13.0568C20.8321 13.0649 20.8321 13.0649 20.8156 13.0732C20.8379 13.0243 20.8638 12.9867 20.8994 12.9465C20.9082 12.9364 20.917 12.9264 20.9261 12.9161C20.9362 12.9048 20.9362 12.9048 20.9464 12.8933Z" fill="white"/>
<path d="M22.4509 30.1295C22.4995 30.1457 22.5481 30.1619 22.5981 30.1786C22.5981 30.1894 22.5981 30.2001 22.5981 30.2113C22.4766 30.2159 22.4766 30.2159 22.4182 30.1786C22.429 30.1624 22.4398 30.1462 22.4509 30.1295Z" fill="#D0D0D0"/>
<path d="M19.9162 4.40605C19.9216 4.40605 19.927 4.40605 19.9325 4.40605C19.9325 4.4924 19.9325 4.57874 19.9325 4.6677C19.9217 4.64612 19.911 4.62453 19.8998 4.60229C19.889 4.60229 19.8782 4.60229 19.8671 4.60229C19.8833 4.53753 19.8995 4.47277 19.9162 4.40605Z" fill="#DDDDDD"/>
<path d="M21.7641 4.20981C21.7695 4.20981 21.7749 4.20981 21.7804 4.20981C21.775 4.25838 21.7696 4.30695 21.7641 4.35699C21.7533 4.35699 21.7425 4.35699 21.7314 4.35699C21.726 4.37318 21.7206 4.38937 21.715 4.40605C21.7042 4.40605 21.6934 4.40605 21.6823 4.40605C21.6897 4.38251 21.6972 4.35901 21.7048 4.33552C21.7111 4.31589 21.7111 4.31589 21.7174 4.29585C21.7314 4.25887 21.7314 4.25887 21.7641 4.20981Z" fill="#CECECE"/>
<path d="M18.0846 19.2874C18.0954 19.2928 18.1062 19.2982 18.1173 19.3037C18.1173 19.4117 18.1173 19.5196 18.1173 19.6308C18.1119 19.6308 18.1065 19.6308 18.101 19.6308C18.0956 19.5391 18.0902 19.4473 18.0846 19.3528C18.0684 19.3609 18.0684 19.3609 18.0519 19.3691C18.0627 19.3422 18.0735 19.3152 18.0846 19.2874Z" fill="#A6A6A6"/>
<path d="M22.6472 2.83615C22.6633 2.84155 22.6795 2.84694 22.6962 2.8525C22.6557 2.87679 22.6557 2.87679 22.6144 2.90156C22.6252 2.87998 22.636 2.85839 22.6472 2.83615ZM22.5981 2.90156C22.6089 2.90696 22.6197 2.91236 22.6308 2.91792C22.6185 2.95778 22.6185 2.95778 22.5981 2.99968C22.5633 3.01297 22.5633 3.01297 22.5327 3.01604C22.5502 2.96836 22.5618 2.9379 22.5981 2.90156Z" fill="#E9E9E9"/>
<path d="M22.0257 6.7282C22.0473 6.7282 22.0689 6.7282 22.0911 6.7282C22.0965 6.77676 22.1019 6.82533 22.1075 6.87537C22.0567 6.82459 22.0451 6.79537 22.0257 6.7282Z" fill="white"/>
<path d="M18.7551 23.6537C18.7605 23.6537 18.7659 23.6537 18.7715 23.6537C18.7769 23.6861 18.7823 23.7184 18.7878 23.7518C18.7554 23.768 18.7231 23.7842 18.6897 23.8008C18.7002 23.7439 18.7231 23.7017 18.7551 23.6537Z" fill="#EBEBEB"/>
<path d="M24.7404 5.50169C24.7936 5.50852 24.8161 5.51207 24.8548 5.55075C24.8278 5.56155 24.8009 5.57234 24.7731 5.58346C24.7569 5.56187 24.7407 5.54029 24.724 5.51805C24.7294 5.51265 24.7348 5.50725 24.7404 5.50169Z" fill="#0A0A0A"/>
<path d="M26.343 7.07159C26.3537 7.07699 26.3645 7.08239 26.3757 7.08795C26.3433 7.12572 26.3109 7.1635 26.2775 7.20242C26.256 7.19702 26.2344 7.19163 26.2121 7.18607C26.2553 7.14829 26.2985 7.11051 26.343 7.07159Z" fill="#141414"/>
<path d="M17.0707 18.0445C17.0815 18.0445 17.0923 18.0445 17.1034 18.0445C17.0981 18.0931 17.0927 18.1417 17.0871 18.1917C17.0763 18.1701 17.0655 18.1485 17.0544 18.1263C17.0436 18.1209 17.0328 18.1155 17.0217 18.11C17.0442 18.0772 17.0442 18.0772 17.0707 18.0445Z" fill="#C2C2C2"/>
<path d="M10.9874 19.549C10.9982 19.5544 11.009 19.5598 11.0201 19.5654C10.9985 19.587 10.9769 19.6086 10.9547 19.6308C10.9493 19.62 10.9439 19.6092 10.9383 19.5981C10.9059 19.5981 10.8736 19.5981 10.8402 19.5981C10.8402 19.5927 10.8402 19.5873 10.8402 19.5817C10.8737 19.578 10.9073 19.5743 10.9408 19.5706C10.9712 19.5684 10.9712 19.5684 10.9874 19.549Z" fill="#C8C8C8"/>
</svg>
